<?xml version="1.0" standalone="no"?>
<!DOCTYPE svg PUBLIC "-//W3C//DTD SVG 1.1//EN" "http://www.w3.org/Graphics/SVG/1.1/DTD/svg11.dtd" >
<!--
2013-9-30: Created.
-->
<svg>
<metadata>
Created by iconfont
</metadata>
<defs>

<font id="iconfont" horiz-adv-x="1024" >
  <font-face
    font-family="iconfont"
    font-weight="500"
    font-stretch="normal"
    units-per-em="1024"
    ascent="896"
    descent="-128"
  />
    <missing-glyph />
    
    <glyph glyph-name="liebiao" unicode="&#58880;" d="M296.288 482.304l441.696 0 0-76.416-441.696 0 0 76.416ZM296.288 329.408l441.696 0 0-76.448-441.696 0 0 76.448ZM296.288 176.544l441.696 0 0-76.448-441.696 0 0 76.448ZM810.24-180.256 224-180.256c-77.312 0-140.128 62.88-140.128 140.16L83.872 622.464c0 77.344 62.88 140.16 140.128 140.16l586.24 0c77.312 0 140.128-62.88 140.128-140.16l0-662.56C950.368-117.376 887.552-180.256 810.24-180.256zM224 686.208c-35.168 0-63.712-28.608-63.712-63.744l0-662.56c0-35.168 28.576-63.712 63.712-63.712l586.24 0c35.168 0 63.712 28.576 63.712 63.712L873.952 622.464c0 35.168-28.576 63.744-63.712 63.744L224 686.208z"  horiz-adv-x="1024" />

    
    <glyph glyph-name="xuanzemoban" unicode="&#58973;" d="M638.726-164.357 275.064-164.357c-6.416 0-11.618 5.202-11.618 11.618L263.446 632.673c0 6.416 5.202 11.619 11.618 11.619l633.21 0c6.416 0 11.618-5.203 11.618-11.619l0-513.635c0-3.064-1.21-6.005-3.368-8.182L646.976-160.92C644.793-163.12 641.823-164.357 638.726-164.357zM286.683-141.12l347.203 0 262.771 264.942L896.657 621.055 286.683 621.055 286.683-141.12zM643.41-158.663c-1.496 0-3.007 0.289-4.444 0.885-4.341 1.798-7.172 6.034-7.172 10.734L631.794 115.285c0 6.416 5.202 11.618 11.618 11.618l262.329 0c4.7 0 8.937-2.831 10.735-7.172 1.799-4.343 0.803-9.339-2.52-12.662L651.628-155.26C649.406-157.483 646.435-158.663 643.41-158.663zM655.031 103.666l0-222.66 222.66 222.66L655.031 103.666zM805.551 472.684 379.104 472.684c-6.416 0-11.618 5.202-11.618 11.619s5.202 11.619 11.618 11.619l426.446 0c6.416 0 11.619-5.202 11.619-11.619S811.967 472.684 805.551 472.684zM805.551 368.106 379.104 368.106c-6.416 0-11.618 5.203-11.618 11.619 0 6.417 5.202 11.619 11.618 11.619l426.446 0c6.416 0 11.619-5.202 11.619-11.619C817.17 373.309 811.967 368.106 805.551 368.106zM805.551 263.529 379.104 263.529c-6.416 0-11.618 5.203-11.618 11.619s5.202 11.618 11.618 11.618l426.446 0c6.416 0 11.619-5.202 11.619-11.618S811.967 263.529 805.551 263.529zM233.574 15.933l-69.282 0L164.292 731.251l569.772 0 0-58.068 23.237 0L757.301 742.87c0 6.417-5.202 11.619-11.619 11.619L152.673 754.489c-6.415 0-11.619-5.202-11.619-11.619l0-738.555c0-6.416 5.204-11.618 11.619-11.618l80.9 0L233.573 15.933z"  horiz-adv-x="1024" />

    
    <glyph glyph-name="xuanzemoban2" unicode="&#58977;" d="M908.274 644.292l-633.21 0c-6.416 0-11.618-5.203-11.618-11.619l0-785.412c0-6.416 5.202-11.618 11.618-11.618l363.662 0c3.098 0 6.067 1.237 8.25 3.438l122.06 123.067 144.921 144.922c1.083 1.083 1.915 2.346 2.487 3.704l0.081 0.082c2.157 2.178 3.368 5.118 3.368 8.183L919.893 632.673C919.893 639.089 914.69 644.292 908.274 644.292zM286.683 621.055l609.974 0 0-494.152L643.412 126.903c-6.416 0-11.618-5.202-11.618-11.618L631.794-141.12 286.683-141.12 286.683 621.055zM752.564-21.461l-97.533-97.533 0 222.66 221.635 0L752.564-21.461zM805.551 472.684 379.104 472.684c-6.416 0-11.617 5.202-11.617 11.619s5.201 11.619 11.617 11.619L805.55 495.922c6.416 0 11.619-5.202 11.619-11.619S811.967 472.684 805.551 472.684zM805.551 368.106 379.104 368.106c-6.416 0-11.617 5.202-11.617 11.618 0 6.417 5.201 11.619 11.617 11.619L805.55 391.343c6.416 0 11.619-5.202 11.619-11.619C817.17 373.309 811.967 368.106 805.551 368.106zM805.551 263.529 379.104 263.529c-6.416 0-11.617 5.203-11.617 11.619s5.201 11.617 11.617 11.617L805.55 286.765c6.416 0 11.619-5.201 11.619-11.617S811.967 263.529 805.551 263.529zM233.574 15.933l-69.282 0L164.292 731.251l569.772 0 0-58.068 23.236 0L757.3 742.87c0 6.417-5.202 11.619-11.619 11.619L152.673 754.489c-6.415 0-11.619-5.202-11.619-11.619l0-738.555c0-6.416 5.204-11.618 11.619-11.618l80.9 0L233.574 15.933 233.574 15.933z"  horiz-adv-x="1024" />

    
    <glyph glyph-name="61zuzhirenshi" unicode="&#59132;" d="M369.192925 219.717018c125.144178 0 226.993813 101.817636 226.993813 226.961815 0 125.144178-101.849634 226.993813-226.993813 226.993813s-226.993813-101.817636-226.993813-226.993813C142.199113 321.502656 244.048747 219.717018 369.192925 219.717018zM369.192925 641.706643c107.51328 0 194.995813-87.450534 194.995813-194.995813 0-107.545278-87.450534-194.963815-194.995813-194.963815-107.545278 0-194.995813 87.450534-194.995813 194.963815C174.197113 554.224111 261.679645 641.706643 369.192925 641.706643zM759.248547 67.310543c-36.285732 0-71.387538-7.295544-104.505468-21.566652-2.175864-0.927942-3.99975-2.367852-5.503656-4.063746-67.483782 79.419036-167.893507 130.007875-280.046497 130.007875-202.707331 0-367.625023-164.917693-367.625023-367.625023 0-8.863446 7.167552-15.999 15.999-15.999 8.831448 0 15.999 7.135554 15.999 15.999 0 185.044435 150.550591 335.627023 335.627023 335.627023 185.044435 0 335.659021-150.582589 335.659021-335.627023 0-8.863446 7.167552-15.999 15.999-15.999 8.79945 0 15.999 7.135554 15.999 15.999 0 79.323042-25.502406 152.566465-68.379726 212.658709 28.702206 12.255234 59.292294 18.494844 90.746328 18.494844 127.416036 0 231.185551-103.67352 231.185551-231.217549 0-8.831448 7.167552-15.999 15.999-15.999 8.79945 0 15.999 7.167552 15.999 15.999C1022.4001-50.826073 904.359478 67.310543 759.248547 67.310543zM759.248547 135.690269c90.618336 0 164.373727 73.75539 164.373727 164.341729 0 90.618336-73.75539 164.341729-164.373727 164.341729S594.87482 390.682332 594.87482 300.031998C594.87482 209.44566 668.630211 135.690269 759.248547 135.690269zM759.248547 432.375727c72.95544 0 132.375727-59.35629 132.375727-132.343729 0-72.95544-59.35629-132.343729-132.375727-132.343729S626.87282 227.04456 626.87282 300.031998C626.87282 373.019436 686.229111 432.375727 759.248547 432.375727z"  horiz-adv-x="1024" />

    
    <glyph glyph-name="shenpibaoxiao" unicode="&#58971;" d="M509.6704-110.752 122.8544-110.752c-38.8352 0-70.4 31.5904-70.4 70.4L52.4544 688.1728c0 38.8352 31.5648 70.4 70.4 70.4l600.1664 0c38.8352 0 70.4-31.5648 70.4-70.4L793.4208 353.248l-38.4 0L755.0208 688.1728c0 17.6384-14.3616 32-32 32L122.8544 720.1728c-17.6384 0-32-14.3616-32-32l0-728.5248c0-17.6384 14.3616-32 32-32l386.816 0L509.6704-110.752zM140.8 380.9728l553.5488 0 0-38.4-553.5488 0 0 38.4ZM360.3712 537.824l333.9776 0 0-38.4-333.9776 0 0 38.4ZM493.44 668.7936l200.9088 0 0-38.4-200.9088 0 0 38.4ZM742.784-158.5728c-126.1568 0-228.7872 102.6304-228.7872 228.7872s102.6304 228.7872 228.7872 228.7872 228.7872-102.6304 228.7872-228.7872S868.9152-158.5728 742.784-158.5728zM742.784 260.576c-104.9856 0-190.3872-85.4016-190.3872-190.3872s85.4016-190.3872 190.3872-190.3872 190.3872 85.4016 190.3872 190.3872S847.744 260.576 742.784 260.576zM221.4656 436.4992c-10.5984 0-19.2 8.6016-19.2 19.2L202.2656 581.5488c0 10.5984 8.6016 19.2 19.2 19.2s19.2-8.6016 19.2-19.2l0-125.8496C240.6656 445.1008 232.064 436.4992 221.4656 436.4992zM219.4688 546.6048c-4.4032 0-8.8064 1.4848-12.3904 4.5312C198.9632 557.9968 197.9648 570.1056 204.8256 578.2208l70.8608 83.7632c6.8352 8.0896 18.9952 9.088 27.0592 2.2528 8.0896-6.8608 9.088-18.9696 2.2528-27.0592l-70.8608-83.7632C230.3488 548.9344 224.9216 546.6048 219.4688 546.6048zM225.0752 546.7584c-5.4272 0-10.8544 2.304-14.6176 6.784L139.4432 637.152C132.5824 645.2416 133.5808 657.3504 141.6448 664.2368c8.0384 6.8096 20.224 5.8624 27.0592-2.2016l70.9888-83.6352c6.8864-8.0896 5.8624-20.1984-2.2016-27.0592C233.9072 548.2432 229.4784 546.7584 225.0752 546.7584zM276.3264 532.0896 166.6304 532.0896c-10.5984 0-19.2 8.6016-19.2 19.2s8.6016 19.2 19.2 19.2l109.696 0c10.5984 0 19.2-8.6016 19.2-19.2S286.9248 532.0896 276.3264 532.0896zM276.3264 485.2928 166.6304 485.2928c-10.5984 0-19.2 8.6016-19.2 19.2s8.6016 19.2 19.2 19.2l109.696 0c10.5984 0 19.2-8.6016 19.2-19.2S286.9248 485.2928 276.3264 485.2928zM742.784 88.416c-37.1968 0-67.456 30.2592-67.456 67.456s30.2592 67.456 67.456 67.456 67.4816-30.2592 67.4816-67.456S779.9808 88.416 742.784 88.416zM742.784 184.928c-16.0256 0-29.056-13.0304-29.056-29.056s13.0304-29.056 29.056-29.056 29.0816 13.0304 29.0816 29.056S758.8096 184.928 742.784 184.928zM830.1568-61.4976l-174.7456 0c-24.704 0-44.8 20.096-44.8 44.8l0 13.0048c0 24.704 20.096 44.8 44.8 44.8l174.7456 0c24.704 0 44.8-20.096 44.8-44.8l0-13.0048C874.9568-41.4016 854.8608-61.4976 830.1568-61.4976zM655.4112 2.7072c-3.4816 0-6.4-2.9184-6.4-6.4l0-13.0048c0-3.4816 2.9184-6.4 6.4-6.4l174.7456 0c3.4816 0 6.4 2.9184 6.4 6.4l0 13.0048c0 3.4816-2.9184 6.4-6.4 6.4L655.4112 2.7072zM802.5088 2.7072c-0.128 0-0.3328-0.0256-0.512 0l-118.4512 0c-7.1424 0-13.6704 3.968-16.9984 10.2912-3.328 6.3232-2.8416 13.952 1.2032 19.8144l59.2128 85.7088c7.1936 10.368 24.3968 10.368 31.5904 0l57.1136-82.6624c3.712-3.5072 5.9904-8.4736 5.9904-13.952C821.7088 11.3088 813.1328 2.7072 802.5088 2.7072zM720.1536 41.1072l45.2608 0-22.6304 32.7424L720.1536 41.1072z"  horiz-adv-x="1024" />

    
    <glyph glyph-name="shenpijiekuan" unicode="&#58974;" d="M120.4992 109.1008 70.0928 109.1008c-10.5984 0-19.2 8.6016-19.2 19.2L50.8928 442.8224c0 10.5984 8.6016 19.2 19.2 19.2l50.4064 0c10.5984 0 19.2-8.6016 19.2-19.2l0-314.5216C139.6992 117.7024 131.0976 109.1008 120.4992 109.1008zM89.2928 147.5008l12.0064 0L101.2992 423.6224 89.2928 423.6224 89.2928 147.5008zM925.5936 247.2128l-20.0448 32.7424 14.2848 8.7552c13.8752 7.5776 18.688 23.936 11.6224 36.9664-3.456 6.3488-9.1136 10.9056-16.0512 12.9536-6.9376 2.048-14.1824 1.28-20.4288-2.0992l-63.7696-33.9456-18.048 33.8944 63.616 33.8688c15.1296 8.2176 32.8192 10.0864 49.5104 5.12 16.768-4.9408 30.5664-16.0768 38.8864-31.3856 17.2288-31.6928 5.504-71.424-26.1376-88.6016L925.5936 247.2128zM485.9648 147.3728l-47.5648 18.7136c-7.5008 2.944-12.3648 10.2656-12.1856 18.3296l1.3312 53.1712c0.1792 6.3488 3.456 12.2112 8.7808 15.6416 5.3248 3.4816 12.0576 4.0448 17.8432 1.6128l60.032-25.1648-14.848-35.4304-34.0992 14.3104-0.3072-11.648 35.072-13.7984L485.9648 147.3728zM476.416 86.4704l-207.5648 44.8512L180.5056 131.3216c-10.5984 0-19.2 8.6016-19.2 19.2l0 238.976c0 9.7536 7.3216 17.9712 16.9984 19.072l121.6 14.0032c3.4304 0.4352 7.0144-0.1536 10.1888-1.6128l143.3344-65.8176 131.328-55.0656-14.848-35.4048-131.8912 55.3216-139.0336 63.8208-99.2768-11.4176 0-202.6752 71.1936 0c1.3824 0 2.7136-0.1536 4.0448-0.4352l209.5872-45.312L476.416 86.4704zM678.7584 316.6656c-10.5984 0-19.2 8.6016-19.2 19.2L659.5584 559.8144c0 10.5984 8.6016 19.2 19.2 19.2s19.2-8.6016 19.2-19.2l0-223.9488C697.9584 325.2672 689.3568 316.6656 678.7584 316.6656zM682.0608 549.0624c-4.4032 0-8.8064 1.4848-12.3904 4.5312-8.0896 6.8608-9.088 18.9696-2.2528 27.0592l144.0512 170.368c6.8352 8.1152 18.9696 9.088 27.0592 2.2528 8.0896-6.8608 9.088-18.9696 2.2528-27.0592l-144.0512-170.368C692.9152 551.392 687.488 549.0624 682.0608 549.0624zM679.1424 549.3696c-5.4272 0-10.8544 2.304-14.6176 6.784l-144.4096 170.0864c-6.8864 8.0896-5.8624 20.1984 2.2016 27.0592 8.0384 6.8352 20.224 5.8624 27.0592-2.2016l144.4096-170.0864c6.8864-8.0896 5.8624-20.1984-2.2016-27.0592C687.9744 550.8544 683.5456 549.3696 679.1424 549.3696zM790.3232 511.0976l-223.1552 0c-10.5984 0-19.2 8.6016-19.2 19.2s8.6016 19.2 19.2 19.2l223.1552 0c10.5984 0 19.2-8.6016 19.2-19.2S800.9216 511.0976 790.3232 511.0976zM790.3232 415.9168l-223.1552 0c-10.5984 0-19.2 8.6016-19.2 19.2s8.6016 19.2 19.2 19.2l223.1552 0c10.5984 0 19.2-8.6016 19.2-19.2S800.9216 415.9168 790.3232 415.9168zM744.2944-159.8784c-126.1568 0-228.7872 102.6304-228.7872 228.7872s102.6304 228.7872 228.7872 228.7872 228.8128-102.6304 228.8128-228.7872S870.4512-159.8784 744.2944-159.8784zM744.2944 259.2704c-104.9856 0-190.3872-85.4016-190.3872-190.3872s85.4016-190.3872 190.3872-190.3872 190.4128 85.4016 190.4128 190.3872S849.28 259.2704 744.2944 259.2704zM744.2944 87.9296c-37.1968 0-67.456 30.2592-67.456 67.456s30.2592 67.456 67.456 67.456 67.4816-30.2592 67.4816-67.456S781.4912 87.9296 744.2944 87.9296zM744.2944 184.4416c-16.0256 0-29.056-13.0304-29.056-29.056s13.0304-29.056 29.056-29.056 29.0816 13.0304 29.0816 29.056S760.32 184.4416 744.2944 184.4416zM831.6672-62.0096l-174.72 0c-24.704 0-44.8 20.096-44.8 44.8l0 13.0048c0 24.704 20.096 44.8 44.8 44.8l174.72 0c24.704 0 44.8-20.096 44.8-44.8l0-13.0048C876.4672-41.888 856.3712-62.0096 831.6672-62.0096zM656.9472 2.2208c-3.4816 0-6.4-2.9184-6.4-6.4l0-13.0048c0-3.4816 2.9184-6.4 6.4-6.4l174.72 0c3.4816 0 6.4 2.9184 6.4 6.4l0 13.0048c0 3.4816-2.9184 6.4-6.4 6.4L656.9472 2.2208zM804.0192 2.2208c-0.128 0-0.3328 0-0.512 0l-118.4512 0c-7.1424 0-13.6704 3.968-16.9984 10.2912-3.328 6.3232-2.8416 13.952 1.2032 19.8144l59.2128 85.7088c7.1936 10.368 24.3968 10.368 31.5904 0l57.1136-82.6624c3.712-3.5072 5.9904-8.4736 5.9904-13.952C823.2192 10.8224 814.6432 2.2208 804.0192 2.2208zM721.664 40.6208l45.2608 0-22.6304 32.7424L721.664 40.6208z"  horiz-adv-x="1024" />

    
    <glyph glyph-name="icon01" unicode="&#58894;" d="M571.92972267 379.2824224L443.56401067 379.2824224l5.48819626 18.98710507c1.82394133 6.3079328 4.09322453 14.1592832 6.1070912 21.47032853 4.28315093 16.05635627 4.51018773 21.93750187 4.01681814 24.07034453-1.0271264-0.2979872-2.85215893-1.04349973-5.52530774-2.90236906-8.34472107-5.7316064-19.06460373-12.0297152-31.47744426-19.31892907l-3.90002454-2.2998464c-17.59868373-10.394608-37.54414933-22.17654613-55.17885333-35.03036373-19.39642773-14.06759467-28.7890144-25.76439467-28.74207893-35.77915094 0.08841387-6.79475307 5.06577493-13.7117568 14.7890944-20.44101866 26.1693504-18.2001152 98.1511648-56.88054293 112.78744426-64.58890454l0.17573547-0.02619626c0.63636053 1.16029227 2.941664 7.85789973-6.8777088 34.69635626l-12.63878613 31.12378987 129.08502826 0.084048 0.9103328-0.12115947c22.59132587-2.99733227 65.31586133-20.63421867 65.31586134-65.91729173 0-39.27640213-34.06872853-65.85834987-65.888912-66.04500053L395.19846613 197.2441632c-0.06221653-8.01507947-0.1408064-24.9806784 0.01637334-50.02466453l177.1514944 0c5.47291413 0 54.40386987 0.95399467 86.93900266 33.93883733 19.5154048 19.774096 29.14376 47.23472213 28.618736 81.62326827l-0.00873173 0.55012906 0.03492907 0.5468544c0.01528107 0.36675307 1.24761493 50.54859733-31.51346454 84.47651947C636.443312 368.86052586999995 607.99376213 379.2824224 571.92972267 379.2824224zM869.96124053 687.96833067c-0.00436587 30.4994368-24.8529696 55.31420267-55.38951786 55.31420266L687.92407253 743.28253333 687.92407253 809.32644267c0 34.1669664-28.7136992 55.31529387-55.31529386 55.31529386L389.89146347 864.64173653c-20.5447136 0-55.31420267-11.64986347-55.31420267-55.31529386l0-66.04281814L207.85429653 743.28362453c-30.500528 0-55.31420267-24.81367467-55.31420266-55.31420266l0-728.00677227c0-30.49834453 24.81367467-55.31420267 55.31420266-55.31420267l606.71742614 0c30.54091413 0 55.38951787 24.81476587 55.38951786 55.31420267L869.96124053 687.96833067zM384.59755947 814.6923872l253.2952992 0 0-145.74609067L384.59755947 668.94629653 384.59755947 814.6923872zM819.8612608-45.39783680000005L202.4894432-45.39783680000005 202.4894432 693.25896l132.08236053 0 0-21.79887787c0-26.64198187 17.30942933-55.31638613 55.31420267-55.31638613l242.72277227 0c36.31509013 0 55.31529387 27.8273792 55.31529386 55.31638613l0 21.79887787 131.9371872 0L819.8612608-45.39783680000005z"  horiz-adv-x="1024" />

    
    <glyph glyph-name="jiekuan" unicode="&#58923;" d="M61.44 353.28l28.672 0 0-286.72-28.672 0 0 286.72ZM616.0384 249.9584 346.2144 359.0144c-8.704 3.4816-17.6128 4.9152-26.2144 4.4032l0 0.1024-2.4576-0.3072c-1.536-0.1024-3.072-0.3072-4.608-0.6144L163.84 343.04l0 0 0 0 0-276.48 28.672 0L192.512 317.8496l130.9696 17.2032c3.584-0.1024 7.2704-0.8192 10.8544-2.2528l272.1792-109.9776c15.0528-6.0416 22.6304-22.4256 16.896-36.6592l0 0c-5.7344-14.1312-22.528-20.6848-37.5808-14.6432l-164.352 66.3552 0-30.9248 152.4736-61.5424c30.3104-12.288 64.4096 1.1264 76.0832 30.0032l0 0C661.6064 204.3904 646.4512 237.6704 616.0384 249.9584zM192.512 95.232l94.208 0 0-28.672-94.208 0 0 28.672ZM951.6032 291.84 951.6032 291.84c-22.6304 39.2192-72.704 52.6336-111.9232 30.0032L633.6512 202.8544l-5.7344-36.4544L854.016 296.96c25.4976 14.7456 58.0608 5.9392 72.704-19.456l0 0c14.7456-25.4976 5.9392-58.0608-19.456-72.704L623.5136 40.96c-11.6736-6.7584-24.7808-8.4992-36.9664-6.144l-2.7648-28.672c18.0224-2.9696 37.0688 0.1024 54.0672 9.9328l283.7504 163.84C960.8192 202.5472 974.2336 252.6208 951.6032 291.84zM583.68 6.144 286.72 66.56 286.72 95.232 586.752 34.816ZM409.6 603.136l368.64 0 0-28.672-368.64 0 0 28.672ZM409.6 500.736l368.64 0 0-28.672-368.64 0 0 28.672ZM579.584 599.04l28.672 0 0-266.24-28.672 0 0 266.24ZM579.581112 598.971433l152.054784 152.054784 20.273971-20.273971-152.054784-152.054784-20.273971 20.273971ZM588.021135 578.775296l-152.054784 152.054784 20.273971 20.273971 152.054784-152.054784-20.273971-20.273971Z"  horiz-adv-x="1024" />

    
    <glyph glyph-name="sousuo2" unicode="&#58909;" d="M1004.79998-108.799969c-25.599999-25.599999-63.999998-25.599999-89.599997 0l-198.399994 198.399994c-172.799995-127.999996-409.599987-121.599996-569.599982 25.599999-179.199994 166.399995-191.999994 460.799986-19.199999 639.99998 172.799995 179.199994 460.799986 185.599994 639.99998 6.4 159.999995-159.999995 172.799995-409.599987 38.399999-582.399982l198.399994-198.399994C1030.399979-44.799971 1030.399979-83.199969 1004.79998-108.799969zM703.999989 633.600008c-127.999996 179.199994-390.399988 179.199994-518.399984 0-83.199997-108.799997-83.199997-268.799992 0-377.599988 127.999996-179.199994 390.399988-179.199994 518.399984 0C787.199987 371.200016 787.199987 524.800012 703.999989 633.600008z"  horiz-adv-x="1024" />

    
    <glyph glyph-name="arrow-right-copy" unicode="&#58882;" d="M336.733 776.333l-56.278-55.72 334.857-337.154-337.673-334.315 55.802-56.184 393.944 390.040z"  horiz-adv-x="1024" />

    
    <glyph glyph-name="iconset0157" unicode="&#58936;" d="M964.608-37.888 742.4 183.296c64.512 68.608 102.4 161.792 102.4 264.192C844.8 665.6 665.6 844.8 448.512 844.8S51.2 665.6 51.2 447.488s179.2-396.288 397.312-396.288c102.4 0 196.608 38.912 264.192 102.4l222.208-222.208c4.096-4.096 8.192-4.096 13.312-4.096 13.312 0 21.504 8.192 21.504 21.504C968.704-47.104 964.608-43.008 964.608-37.888zM448.512 94.208c-196.608 0-354.304 157.696-354.304 354.304S251.904 801.792 448.512 801.792s354.304-157.696 354.304-354.304S644.096 94.208 448.512 94.208z"  horiz-adv-x="1024" />

    
    <glyph glyph-name="gerenjiekuanjiekuan" unicode="&#58960;" d="M87 287.4 74 287.4c-8.3 0-13-4.6-13-13l0-221c0-8.4 4.8-13 13-13l13 0c8.3 0 13 4.6 13 13l0 221C100 282.7 95.3 287.4 87 287.4zM637.3 141.4C637.3 141.4 637.3 141.4 637.3 141.4L637.3 141.4 637.3 141.4zM399 443.4l156 0 0-117c0 0-3.1-13 26-13 20.7 0 26 13 26 13l0 117 158.9-0.6c0 0 10.5-2.7 10.1 26.6-0.3 15.7-13 13-13 13l-156 0 0 78 156 0c0 0 13 3.4 13 26 0 14.2-13 13-13 13L620 599.4l117 156c0 0 11.7 17.1 0 26-27.1 20.6-39 0-39 0l-117-156-117 156c0 0-14.7 25.3-39 0-11.8-12.2 0-26 0-26l117-156L399 599.4c0 0-13-0.7-13-13 0.1-28.4 13-26 13-26l156 0 0-78L399 482.4c0 0-12.5 0.7-13-13C385.1 440.5 399 443.4 399 443.4zM961 217.7l-75 90.9c-14.4 11.7-30 0-30 0L607.1 170.4c0 0 19.3-4 26-13 6.5-8.7 6.2-13.4 4.3-16l229.7 133 52-65-325-195-26 0c0 0-261.8 65-286 65-0.5 0-91 0-91 0l0 182c0 0 86.7 39 104 39 1.6 0 13.2 0.3 13 0 51.9-21.1 260-143 260-143s24.1-11.3 17.9-30.5c-9-28.5-30.9-21.5-30.9-21.5l-143 65 0-39 143-65c27.9-12.1 39 13 39 13s40.1 52.5 39 52c2.5 3.6 3.8 6.9 4.2 10-1.8-2.5-5-2.9-5-2.9l5 2.9 0 0c3.2 20.1-30.3 29-30.3 29s-259.7 155.5-260 156c-29.6 15.6-50 12.8-52 13-14.1 1.5-117-39-117-39-28.6-13.4-26-26-26-26l0-221c-1.2-8.7 13-13 13-13l104 0c35.6-4.3 299-65 299-65l26 0L946 187.4C971 204.6 961 217.7 961 217.7z"  horiz-adv-x="1024" />

    
    <glyph glyph-name="3kaipiaoguanli" unicode="&#59191;" d="M159.094438 169.40962l352.905562 0 0-42.555212-352.905562 0 0 42.555212ZM159.094438 84.128305l479.889675 0 0-42.555212-479.889675 0 0 42.555212ZM980.219891 552.648025 723.393571 552.648025l131.370003 132.61025L687.503153 854.055702 385.244085 552.648025 43.780109 552.648025c-23.619954 0-42.768059-19.148106-42.768059-42.768059l0-553.167608c0-23.619954 19.148106-42.768059 42.768059-42.768059l936.439782 0c23.619954 0 42.768059 19.148106 42.768059 42.768059L1022.98795 509.879965C1022.98795 533.499919 1003.839845 552.648025 980.219891 552.648025zM683.980933 732.830757l53.315276-54.958706L460.987163 400.823154l-54.455239 54.750975L683.980933 732.830757zM381.009643 319.88475l-97.005334-38.448684 37.08871 98.366332L381.009643 319.88475zM938.133354 25.119353c0-14.048971-11.356652-25.438369-25.364691-25.438369L111.584378-0.319016c-14.009062 0-25.364691 11.389398-25.364691 25.438369L86.219687 442.080813c0 14.048971 11.356652 25.438369 25.364691 25.438369l188.342576 0-22.236444-22.1423-75.617212-244.069785 245.839081 74.137511 190.845583 192.074573 274.010701 0c14.009062 0 25.364691-11.389398 25.364691-25.438369L938.133354 25.119353zM828.01435 382.856967l-50.623981-116.507504c-11.704576 22.772656-20.48659 51.033303-53.079916 116.507504l-62.812581 0 67.024509-128.268362L669.113317 254.588605l0-41.97295 73.806983 0 0-43.069935L669.113317 169.54572l0-42.37818 73.806983 0 0-66.3655 64.479547 0 0 66.3655 71.373561 0 0 42.37818-71.373561 0 0 43.069935 71.373561 0L878.773408 254.588605l-57.788148 0 63.126736 128.268362L828.01435 382.856967z"  horiz-adv-x="1024" />

    
    <glyph glyph-name="yanjing" unicode="&#59009;" d="M512.338944 157.713408c165.547008 0 390.09792 169.18016 405.70368 215.688192-6.089728 50.951168-217.427968 235.211776-405.70368 235.211776-179.0976 0-405.809152-146.766848-405.830656-236.33408C111.219712 328.153088 328.777728 157.713408 512.338944 157.713408M512.338944 112.601088C324.273152 112.601088 61.44 289.601536 61.44 371.8912c0 130.400256 264.404992 281.83552 450.898944 281.83552 204.079104 0 450.905088-198.331392 450.905088-281.83552C963.244032 302.406656 693.465088 112.601088 512.338944 112.601088L512.338944 112.601088 512.338944 112.601088 512.338944 112.601088zM512.338944 112.601088M512.338944 270.4384c62.134272 0 112.729088 50.593792 112.729088 112.729088 0 62.1312-50.594816 112.72192-112.729088 112.72192-62.133248 0-112.723968-50.59072-112.723968-112.72192C399.614976 321.032192 450.205696 270.4384 512.338944 270.4384M512.338944 225.32608c-87.181312 0-157.837312 70.660096-157.837312 157.841408 0 87.17824 70.656 157.835264 157.837312 157.835264 87.186432 0 157.840384-70.656 157.840384-157.835264C670.179328 295.986176 599.525376 225.32608 512.338944 225.32608L512.338944 225.32608 512.338944 225.32608 512.338944 225.32608zM512.338944 225.32608"  horiz-adv-x="1024" />

    
    <glyph glyph-name="lend" unicode="&#58924;" d="M61.44 353.28h28.672v-286.72h-28.672v286.72zM616.038 249.958l-269.824 109.056c-8.704 3.482-17.613 4.915-26.214 4.403v0.102l-2.458-0.307c-1.536-0.102-3.072-0.307-4.608-0.614l-149.094-19.558v-276.48h28.672v251.29l130.97 17.203c3.584-0.102 7.27-0.819 10.854-2.253l272.179-109.978c15.053-6.042 22.63-22.426 16.896-36.659v0c-5.734-14.131-22.528-20.685-37.581-14.643l-164.352 66.355v-30.925l152.474-61.542c30.31-12.288 64.41 1.126 76.083 30.003v0c11.571 28.979-3.584 62.259-33.997 74.547zM192.512 95.232h94.208v-28.672h-94.208v28.672zM951.603 291.84v0c-22.63 39.219-72.704 52.634-111.923 30.003l-206.029-118.989-5.734-36.454 226.099 130.56c25.498 14.746 58.061 5.939 72.704-19.456v0c14.746-25.498 5.939-58.061-19.456-72.704l-283.75-163.84c-11.674-6.758-24.781-8.499-36.966-6.144l-2.765-28.672c18.022-2.97 37.069 0.102 54.067 9.933l283.75 163.84c39.219 22.63 52.634 72.704 30.003 111.923zM583.68 6.144l-296.96 60.416v28.672l300.032-60.416zM409.6 603.136h368.64v-28.672h-368.64v28.672zM409.6 500.736h368.64v-28.672h-368.64v28.672zM579.584 599.040h28.672v-266.24h-28.672v266.24zM579.581 598.971l152.055 152.055 20.274-20.274-152.055-152.055-20.274 20.274zM588.021 578.775l-152.055 152.055 20.274 20.274 152.055-152.055-20.274-20.274z"  horiz-adv-x="1024" />

    
    <glyph glyph-name="xinzi0101" unicode="&#58970;" d="M729.995775 535.525254c-36.578452 1.474938-60.177453-3.834838-70.797004-16.027655L517.506434 357.451123l0-11.406184 121.14154 0 0-22.812368L517.506434 323.232572l0-132.449395c0-21.33743 27.433839-31.268677 82.301517-29.69541l0-18.289226L400.986365 142.79854l0 16.027655c48.771269 0 73.156904 11.406184 73.156904 34.218552L474.143269 323.134242 350.641828 323.134242 350.641828 345.94661l123.403111 0 0 18.289226-137.070866 155.360092c-12.192817 10.619551-37.365085 16.027655-75.418475 16.027655l0 16.027655 196.461686 0 0-16.027655c-48.771269 0-73.156904-3.834838-73.156904-11.406184 0-1.573267 0.786633-3.048204 2.3599-4.523142l122.223161-137.169195 117.700019 136.972537c1.474938 1.474938 2.261571 3.736509 2.261571 6.883042 0 6.096409-15.241022 9.144613-45.723065 9.144613l0 16.027655 146.215479 0L729.995775 535.525254 729.995775 535.525254zM492.629153-67.134242c-58.112541 0-114.455157 11.406184-167.45458 33.825235-51.229499 21.632418-97.247551 52.704436-136.775879 92.134434-39.528327 39.528327-70.502017 85.448051-92.232764 136.677549C73.746879 248.60073 62.340695 304.943345 62.340695 362.957557s11.406184 114.356827 33.825235 167.45458c21.632418 51.229499 52.704436 97.247551 92.232764 136.677549 39.528327 39.528327 85.54638 70.502017 136.775879 92.134434 53.097753 22.419051 109.440369 33.825235 167.45458 33.825235 58.112541 0 114.455157-11.406184 167.45458-33.825235 51.229499-21.632418 97.247551-52.704436 136.775879-92.134434 39.528327-39.528327 70.502017-85.448051 92.232764-136.677549 22.419051-52.999424 33.825235-109.34204 33.825235-167.45458S911.511427 248.60073 889.092376 195.502977c-21.632418-51.229499-52.704436-97.247551-92.232764-136.677549-39.528327-39.528327-85.54638-70.502017-136.775879-92.134434C607.08431-55.728058 550.741694-67.134242 492.629153-67.134242zM492.629153 753.717688c-215.537546 0-390.956789-175.320914-390.956789-390.760131 0-215.439216 175.419243-390.760131 390.956789-390.760131s390.956789 175.320914 390.956789 390.760131C883.585942 578.396774 708.166699 753.717688 492.629153 753.717688z"  horiz-adv-x="1114" />

    
    <glyph glyph-name="fanhui" unicode="&#58963;" d="M629.376 736 330.624 428.032 330.624 428.032 288 384 330.624 340.032 330.688 340.032 629.376 32.064 672 76.032 373.312 384 672 691.968Z"  horiz-adv-x="1024" />

    
    <glyph glyph-name="iconhuidaodingbu" unicode="&#58943;" d="M528.853333 701.653333c-0.64 0.874667-1.322667 1.749333-2.154667 2.602667l-15.082667 15.082667c-0.853333 0.853333-1.728 1.514667-2.581333 2.154667l-1.984 1.984c-0.704 0.704-1.92 0.746667-3.264 0.469333-1.322667 0.234667-2.474667 0.170667-3.178667-0.512l-2.090667-2.090667c-0.746667-0.576-1.514667-1.130667-2.24-1.856l-14.741333-14.762667C480.832 704 480.277333 703.253333 479.722667 702.528L251.093333 473.92c-1.92-1.92-0.085333-6.848 4.074667-11.029333l15.082667-15.082667c4.16-4.16 9.088-5.994667 11.008-4.074667l223.253333 223.253333 217.109333-217.109333c1.877333-1.877333 6.677333-0.085333 10.752 3.989333l14.741333 14.762667c4.074667 4.053333 5.866667 8.896 4.010667 10.752L528.853333 701.653333zM512 896C229.226667 896 0 666.773333 0 384s229.226667-512 512-512 512 229.226667 512 512S794.773333 896 512 896zM512-85.333333C252.8-85.333333 42.666667 124.8 42.666667 384S252.8 853.333333 512 853.333333s469.333333-210.133333 469.333333-469.333333S771.2-85.333333 512-85.333333zM522.666667 576l-21.333333 0c-5.888 0-10.666667-4.778667-10.666667-10.666667l0-554.666667c0-5.888 4.778667-10.666667 10.666667-10.666667l21.333333 0c5.888 0 10.666667 4.778667 10.666667 10.666667l0 554.666667C533.333333 571.221333 528.554667 576 522.666667 576z"  horiz-adv-x="1024" />

    
    <glyph glyph-name="sousuo3" unicode="&#59048;" d="M1004.8-19.2l-243.2 243.2c0 0-6.4 6.4-6.4 6.4C800 300.8 832 390.4 832 480 832 710.4 646.4 896 416 896S0 710.4 0 480 185.6 64 416 64c89.6 0 179.2 32 243.2 83.2 0-6.4 6.4-6.4 6.4-6.4l243.2-243.2c25.6-25.6 70.4-25.6 96-6.4C1030.4-83.2 1030.4-44.8 1004.8-19.2zM64 480C64 672 224 832 416 832S768 672 768 480 608 128 416 128 64 288 64 480z"  horiz-adv-x="1024" />

    
    <glyph glyph-name="up" unicode="&#58918;" d="M513.01512 788.752394c-223.617987 0-404.894633-181.27767-404.894633-404.894633S289.396109-21.037896 513.01512-21.037896c223.616964 0 404.894633 181.27767 404.894633 404.894633S736.632083 788.752394 513.01512 788.752394zM660.196227 370.55785 529.860786 508.985596l0-316.656987-33.741475 0L496.119311 507.874285 365.734752 370.507708l-24.482601 23.230074 172.430164 181.647083L684.777065 393.688663 660.196227 370.55785z"  horiz-adv-x="1024" />

    
    <glyph glyph-name="xinshenqing" unicode="&#58925;" d="M960.951361 781.779802C960.951361 823.827397 927.254127 857.934185 885.684346 857.934185L133.082458 857.934185C91.535429 857.934185 57.838196 823.827397 57.838196 781.779802L57.838196 20.304233C57.838196-21.743362 91.535429-55.85015 133.082458-55.85015L546.027153-55.85015C546.277436-68.70561 547.164804-81.4018 548.666504-93.915965L133.082458-93.915965C70.739162-93.915965 20.204688-42.789912 20.204688 20.304233L20.204688 781.779802C20.204688 844.873947 70.739162 896 133.082458 896L885.684346 896C948.050394 896 998.584868 844.873947 998.584868 781.779802L998.584868 318.346139C986.252727 321.144762 973.715809 323.329052 960.951361 324.853505L960.951361 781.779802ZM680.975358 620.824886 265.277547 620.824886C250.101278 620.824886 237.769137 633.134274 237.769137 648.333296L237.769137 648.788357C237.769137 663.987379 250.101278 676.296767 265.277547 676.296767L680.975358 676.296767C696.174381 676.296767 708.483768 663.987379 708.483768 648.788357L708.483768 648.333296C708.483768 633.134274 696.174381 620.824886 680.975358 620.824886ZM681.111876 382.646195 265.163782 382.646195C250.033019 382.646195 237.769137 394.887324 237.769137 410.018087 237.769137 425.126097 250.033019 437.389979 265.163782 437.389979L681.111876 437.389979C696.219887 437.389979 708.483768 425.126097 708.483768 410.018087 708.483768 394.887324 696.219887 382.646195 681.111876 382.646195ZM596.243084 110.337962 750.235574 110.337962 750.235574 284.489634C750.235574 299.688657 762.408444 311.998045 777.425442 311.998045 792.419687 311.998045 804.592556 299.688657 804.592556 284.489634L804.592556 110.337962 976.719209 110.337962C991.736207 110.337962 1003.886324 98.028575 1003.886324 82.852305 1003.886324 67.653283 991.713454 55.343895 976.719209 55.343895L804.592556 55.343895 804.592556-100.468837C804.592556-115.667859 792.419687-127.977247 777.425442-127.977247 762.408444-127.977247 750.235574-115.667859 750.235574-100.468837L750.235574 55.343895 596.243084 55.343895C581.226086 55.343895 569.053216 67.653283 569.053216 82.852305 569.053216 98.028575 581.226086 110.337962 596.243084 110.337962Z"  horiz-adv-x="1024" />

    
    <glyph glyph-name="tuihuodan1" unicode="&#58952;" d="M568.184115 379.577271 447.84126 379.577271l5.145184 17.800411c1.709945 5.913687 3.837398 13.274328 5.725398 20.128433 4.015454 15.052834 4.228301 20.566408 3.765767 22.565948-0.962931-0.279363-2.673899-0.978281-5.179976-2.720971-7.823176-5.373381-17.873066-11.277858-29.510104-18.111496l-3.656273-2.156106c-16.498766-9.744945-35.19764-20.790512-51.730175-32.840966-18.184151-13.18837-26.989701-24.15412-26.945699-33.542954 0.082888-6.370081 4.749164-12.854772 13.864776-19.163455 24.533766-17.062608 92.016717-53.325509 105.738229-60.552098l0.164752-0.024559c0.596588 1.087774 2.75781 7.366781-6.447852 32.527834l-11.848862 29.178553 121.017214 0.078795 0.853437-0.113587c21.179368-2.809999 61.23362-19.34458 61.23362-61.797461 0-36.821627-31.939433-61.742203-61.770855-61.917188L402.498562 208.916403c-0.058328-7.514137-0.132006-23.419386 0.01535-46.898123l166.079526 0c5.130857 0 51.003628 0.89437 81.505315 31.81766 18.295692 18.538215 27.322275 44.282552 26.830065 76.521814l-0.008186 0.515746 0.032746 0.512676c0.014326 0.343831 1.169639 47.38931-29.543873 79.196737C628.665605 369.806743 601.994152 379.577271 568.184115 379.577271zM847.588663 668.97031c-0.004093 28.593222-23.299659 51.857065-51.927673 51.857065L676.928818 720.827375 676.928818 782.74354c0 32.031531-26.919093 51.858088-51.858088 51.858088L397.523247 834.601628c-19.260669 0-51.857065-10.921747-51.857065-51.858088l0-61.915142L226.863403 720.828398c-28.594245 0-51.857065-23.26282-51.857065-51.857065l0-682.506349c0-28.592198 23.26282-51.857065 51.857065-51.857065l568.797587 0c28.632107 0 51.927673 23.263843 51.927673 51.857065L847.588663 668.97031zM392.560212 787.774113l237.464343 0 0-136.63696L392.560212 651.137153 392.560212 787.774113zM800.619932-18.560472 221.833853-18.560472 221.833853 673.930275l123.827213 0 0-20.436448c0-24.976858 16.22759-51.859112 51.857065-51.859112l227.552599 0c34.045397 0 51.858088 26.088168 51.858088 51.859112l0 20.436448 123.691113 0L800.619932-18.560472z"  horiz-adv-x="1024" />

    
    <glyph glyph-name="daituihuo" unicode="&#58958;" d="M849.63328 803.29728c-11.86304 17.79712-31.85152 28.47744-53.21216 28.47744L225.35168 831.77472c-21.36064 0-41.344-10.68032-53.21216-28.47744L64.04096 640.11776l0-639.62112c0-35.16416 28.79488-63.9488 63.95392-63.9488l767.31392 0c35.16416 0 63.95392 28.78464 63.95392 63.9488L959.26272 640.11776 849.63328 803.29728zM895.3088 0.50176 127.99488 0.50176 127.99488 576.16896l767.31392 0L895.3088 0.50176zM127.99488 640.11776 221.5424 767.4112l582.12864 0.50176 91.63776-127.79008L127.99488 640.12288zM482.51904 153.62048c68.16256-0.96256 138.35776-0.48128 210.60096 1.43872-2.64192-7.92064-6.00064-17.39776-10.08128-28.4416-69.84192-0.48128-138.12224 0-204.84096 1.43872-40.32 0.72192-68.87936 14.76096-85.67808 42.12224-9.84064-9.11872-24.23808-25.20064-43.20256-48.24064l-14.76096 29.88032c21.12 20.39808 36.48 35.04128 46.08 43.91936l0 121.3184-42.83904 0 0 26.63936 70.55872 0 0-153.71776C423.23968 166.70208 447.95904 154.57792 482.51904 153.62048zM379.56096 464.66048c12.24192-14.87872 29.04064-37.56032 50.40128-68.03968l-25.55904-18.00192c-19.44064 30.47936-35.39968 54.00064-47.88224 70.55872L379.56096 464.66048zM566.0416 236.42112c0.24064-9.84064 0.83968-19.31776 1.80224-28.4416-22.79936-8.64256-45.83936-18.60096-69.12-29.88032-6.72256-3.59936-13.44-7.79776-20.16256-12.60032l-20.52096 26.99776c6.95808 6.72256 10.43968 14.87872 10.43968 24.47872L468.48 456.01792l181.07904 0 0-164.16256-26.99776 0 0 9.35936-126.72 0 0-93.96224C515.04128 214.70208 538.43968 224.41984 566.0416 236.42112zM622.56128 431.5392l-126.72 0 0-41.04192 126.72 0L622.56128 431.5392zM622.56128 325.69856l0 41.04192-126.72 0 0-41.04192L622.56128 325.69856zM663.9616 293.6576l18.36032-24.84224c-23.28064-9.35936-45.96224-18.60096-68.03968-27.71968 25.92256-16.08192 47.51872-29.76256 64.79872-41.04192l-18.00192-25.20064c-39.36256 28.55936-85.91872 59.8784-139.67872 93.96224l14.76096 19.79904c19.44064-11.76064 37.44256-22.6816 54.00064-32.75776C614.15936 267.38176 638.76096 279.98208 663.9616 293.6576z"  horiz-adv-x="1024" />

    
    <glyph glyph-name="moban-qiuzhiyixiang" unicode="&#58926;" d="M420.126148-62.492615c-5.10978 0-10.832735 0-18.906188 3.883433-18.701796 7.869062-31.169661 26.264271-31.169661 46.192415L370.050299 161.111377l270.613972 332.34012L296.060679 196.471058 97.188024 277.818762c-19.928144 7.971257-31.88503 24.526946-31.88503 44.352894 0 19.212774 8.993214 35.564072 24.731337 45.068263l0.408782 0.204391c0 0 630.955689 362.998802 767.386826 441.48503 4.087824 2.350499 25.548902 16.862275 32.498204 21.256687 13.694212 8.788822 31.680639 7.255888 43.228743-4.19002 0.102196-0.102196 0.204391-0.204391 0.204391-0.204391 1.839521-1.839521 23.198403-19.519361 24.220359-54.061477 0-0.817565 0-1.63513-0.204391-2.452695L834.222754 41.031537l-0.204391-0.715369c-5.10978-20.541317-16.76008-30.147705-25.548902-34.542116-2.963673-1.532934-13.387625-6.233932-23.607186-6.438323-6.540519-0.204391-13.081038 1.124152-19.110579 3.781238l-201.018762 81.552096-106.181238-129.788423-0.715369-0.715369C447.412375-56.360878 433.615968-62.492615 420.126148-62.492615zM418.491018-21.818762c0.510978 0 1.124152 0 1.63513 0 2.452695 0 5.722954 1.63513 8.482236 4.087824l123.758882 151.249501 229.94012-93.406786c0.408782-0.204391 0.817565-0.306587 1.328543-0.306587l0.510978 0c1.124152 0.204391 3.985629 1.021956 6.131737 2.146108 1.532934 0.715369 3.065868 3.474651 4.087824 7.460279l123.452295 727.939321c0.204391 1.532934 0.91976 5.416367-5.416367 12.467864-1.226347 0.102196-2.759281 0.102196-4.087824 0.102196-1.021956-0.204391-3.576846-0.91976-5.722954-1.941717L110.882236 332.391218c-1.430739-0.817565-4.905389-3.270259-4.905389-10.219561 0-1.124152 0-4.19002 6.438323-6.74491l0.204391-0.102196 175.980838-72.047904L788.336926 674.235529l29.023553-28.205988-406.738523-499.42994 0-159.016367c0-4.087824 3.270259-7.562475 6.438323-8.891018l0.715369-0.306587L418.491018-21.818762z"  horiz-adv-x="1024" />

    
    <glyph glyph-name="kaoqinzhuanhuan" unicode="&#58914;" d="M1003.605333 409.557333c-41.770667-35.114667-78.912-73.898667-114.666666-114.24l-15.061334-17.173333c-17.472-20.074667-34.688-40.469333-52.096-60.928-9.301333-10.922667-23.637333-15.168-36.202666-6.442667-31.530667 21.888-62.293333 68.288-103.210667 68.906667-32.512 0.469333-27.605333 51.328 4.757333 50.837333 43.690667-0.661333 72.213333-32.32 103.872-58.645333l3.541334-2.944 2.773333 3.157333c26.88 35.754667 123.370667 142.229333 169.216 181.696 28.224 24.32 65.514667-20.352 37.077333-44.224zM931.818667 710.293333c0 20.565333-16.789333 37.226667-37.482667 37.226667h-157.077333V788.48h194.56c22.613333 0 40.96-18.346667 40.96-40.96V512l-40.96-40.96V710.293333z m-281.6-65.173333a35.84 35.84 0 0 0-35.84 35.84V844.8a35.84 35.84 0 1 0 71.68 0v-163.84a35.84 35.84 0 0 0-35.84-35.84z m-271.36 143.36h184.32v-40.96h-184.32V788.48z m-87.04-143.36a35.84 35.84 0 0 0-35.84 35.84V844.8a35.84 35.84 0 1 0 71.68 0v-163.84a35.84 35.84 0 0 0-35.84-35.84z m-5.12-245.76h-81.92v81.92h81.92v-81.92z m0-133.12v-81.92h-81.92v81.92h81.92z m143.36 215.04h81.92v-81.92h-81.92v81.92z m81.92-296.96h-81.92v81.92h81.92v-81.92zM51.178667 710.293333v-744.725333c0-20.565333 16.789333-37.248 37.482666-37.248h805.696c20.693333 0 37.482667 16.682667 37.482667 37.248V266.24l40.96 40.96v-378.88c0-22.613333-18.346667-40.96-40.96-40.96H51.178667a40.96 40.96 0 0 0-40.96 40.96V747.52c0 22.634667 18.346667 40.96 40.96 40.96h153.6v-40.96H88.661333c-20.693333 0-37.482667-16.661333-37.482666-37.226667z"  horiz-adv-x="1024" />

    
    <glyph glyph-name="sousuo1" unicode="&#58897;" d="M790.135403 169.994518l221.883586-221.926239a44.444963 44.444963 0 0 0 0-62.913935 44.444963 44.444963 0 0 0-62.913935 0l-221.926239 221.883586c-174.794105-143.230504-433.1891-133.292235-596.381449 29.900114-173.855728 173.813074-173.855728 455.624849 0 629.437923 173.813074 173.813074 455.624849 173.813074 629.437923 0 163.235003-163.192349 173.130618-421.587344 29.900114-596.381449zM193.753954 703.419379a356.028891 356.028891 0 0 1 0-503.5674 356.028891 356.028891 0 0 1 503.524747 0h0.042653v0.042653A356.071545 356.071545 0 0 1 193.753954 703.419379z"  horiz-adv-x="1025" />

    
    <glyph glyph-name="icon-test" unicode="&#58885;" d="M832 288c17.6 0 32-14.4 32-32v-320c0-17.673-14.327-32-32-32s-32 14.327-32 32v320c0 17.6 14.4 32 32 32zM256 672h384c17.673 0 32-14.327 32-32s-14.327-32-32-32h-384c-17.673 0-32 14.327-32 32s14.327 32 32 32zM256 480h384c17.673 0 32-14.327 32-32s-14.327-32-32-32h-384c-17.673 0-32 14.327-32 32s14.327 32 32 32zM256 288h224c17.673 0 32-14.327 32-32s-14.327-32-32-32h-224c-17.673 0-32 14.327-32 32s14.327 32 32 32zM672 128h320c17.673 0 32-14.327 32-32s-14.327-32-32-32h-320c-17.673 0-32 14.327-32 32s14.327 32 32 32zM736 864h-576c-70.692 0-128-57.308-128-128v-704c0-70.692 57.308-128 128-128h416v64h-416c-35.346 0-64 28.654-64 64v704c0 35.346 28.654 64 64 64h576c35.346 0 64-28.654 64-64v-384h64v384c0 70.692-57.308 128-128 128z"  horiz-adv-x="1024" />

    
    <glyph glyph-name="shenhe" unicode="&#59032;" d="M896 661.333333c-179.2 0-315.733333 38.4-384 102.4-72.533333-64-204.8-102.4-384-102.4-25.6 0-42.666667 17.066667-42.666667 42.666667s17.066667 42.666667 42.666667 42.666667c234.666667 0 311.466667 64 337.066667 89.6 0 0 4.266667 4.266667 4.266666 8.533333v4.266667V853.333333c0 25.6 17.066667 42.666667 42.666667 42.666667 21.333333 0 42.666667-17.066667 42.666667-42.666667v-4.266666c4.266667-4.266667 4.266667-8.533333 4.266666-8.533334 25.6-29.866667 102.4-93.866667 337.066667-93.866666 25.6 0 42.666667-17.066667 42.666667-42.666667s-17.066667-42.666667-42.666667-42.666667zM533.333333-123.733333c-8.533333-4.266667-12.8-4.266667-21.333333-4.266667s-12.8 0-21.333333 4.266667c-25.6 8.533333-46.933333 17.066667-68.266667 25.6-217.6 81.066667-332.8 213.333333-337.066667 443.733333V512c0 25.6 17.066667 42.666667 42.666667 42.666667s42.666667-17.066667 42.666667-42.666667V345.6c4.266667-192 93.866667-294.4 281.6-366.933333 17.066667-8.533333 38.4-12.8 59.733333-21.333334 21.333333 8.533333 38.4 12.8 59.733333 21.333334 187.733333 72.533333 277.333333 174.933333 281.6 366.933333V512c0 25.6 17.066667 42.666667 42.666667 42.666667s42.666667-17.066667 42.666667-42.666667v-170.666667c-4.266667-230.4-119.466667-362.666667-337.066667-443.733333-21.333333-4.266667-42.666667-12.8-68.266667-21.333333zM456.533333 601.6l93.866667 8.533333c4.266667-12.8 8.533333-29.866667 17.066667-51.2h196.266666v-102.4h-76.8v42.666667H337.066667v-42.666667H260.266667V558.933333H469.333333c-4.266667 17.066667-8.533333 34.133333-12.8 42.666667zM298.666667 157.866667v290.133333h174.933333v42.666667h76.8v-42.666667H725.333333v-290.133333h-72.533333v25.6h-102.4v-106.666667h-76.8v106.666667H371.2v-25.6H298.666667z m354.133333 230.4h-102.4V341.333333h102.4v46.933334zM371.2 341.333333h102.4v46.933334H371.2V341.333333z m0-102.4h102.4v46.933334H371.2v-46.933334z m179.2 0h102.4v46.933334h-102.4v-46.933334z"  horiz-adv-x="1024" />

    
    <glyph glyph-name="chalvfeiyongbaoxiao" unicode="&#58905;" d="M864 768h-704a128 128 0 0 1-128-128v-512a128 128 0 0 1 128-128h704a128 128 0 0 1 128 128V640a128 128 0 0 1-128 128z m64-640a64 64 0 0 0-64-64h-704a64 64 0 0 0-64 64V640a64 64 0 0 0 64 64h704a64 64 0 0 0 64-64v-512zM832 416h-192a32 32 0 0 1 0-64h192a32 32 0 0 1 0 64zM832 288h-192a32 32 0 0 1 0-64h192a32 32 0 0 1 0 64zM832 544h-192a32 32 0 0 1 0-64h192a32 32 0 0 1 0 64zM527.232 559.232a47.68 47.68 0 0 1-32.128 16.896c-15.808 1.216-31.36-5.952-46.592-21.184L372.928 479.36l-194.24 36.736-3.52-1.408a24.064 24.064 0 0 1-14.848-17.92c-1.6-9.792 3.392-19.52 14.784-28.992l122.624-70.656-0.384-0.32-41.92-41.984-56.64 2.88-35.392-35.328 91.456-35.52 35.52-91.52 35.392 35.456-2.88 56.576 41.92 41.984 0.32 0.256 69.376-120.64 1.28-1.856c8.32-10.048 16.896-15.104 25.536-15.104 1.152 0 2.304 0.128 3.456 0.256a24.32 24.32 0 0 1 17.92 14.848l1.408 3.648-36.736 194.176 75.648 75.648c15.104 15.168 22.272 30.848 21.12 46.528a47.68 47.68 0 0 1-16.896 32.128z"  horiz-adv-x="1024" />

    
    <glyph glyph-name="dingdan" unicode="&#58935;" d="M300 433.6h424.8v-48H300v48zM300 222.4H560v-48H300v48zM818.4-85.6H205.6c-12.8 0-24.8 2.4-36.8 7.2-11.2 4.8-21.6 11.2-29.6 20-8.8 8.8-15.2 18.4-20 29.6-4.8 12-7.2 24-7.2 36.8V645.6c0 12.8 2.4 24.8 7.2 36.8 4.8 11.2 11.2 21.6 20 29.6 8.8 8.8 18.4 15.2 29.6 20 12 4.8 24 7.2 36.8 7.2h92.8v-47.2H205.6c-25.6 0-47.2-20.8-47.2-47.2v-637.6c0-25.6 20.8-47.2 47.2-47.2h612c25.6 0 47.2 20.8 47.2 47.2V645.6c0 25.6-20.8 47.2-47.2 47.2H725.6v47.2h92.8c12.8 0 24.8-2.4 36.8-7.2 11.2-4.8 21.6-11.2 29.6-20 8.8-8.8 15.2-18.4 20-29.6 4.8-12 7.2-24 7.2-36.8v-637.6c0-12.8-2.4-24.8-7.2-36.8-4.8-11.2-11.2-21.6-20-29.6-8.8-8.8-18.4-15.2-29.6-20-12-5.6-24-8-36.8-8zM747.2 598.4H276.8V752c0 32.8 26.4 59.2 59.2 59.2h60.8c21.6 43.2 66.4 71.2 116 71.2 49.6 0 94.4-28 116-71.2h60.8c32.8 0 59.2-26.4 59.2-59.2l-1.6-153.6z m-423.2 47.2h376.8V752c0 6.4-5.6 12-12 12H595.2l-5.6 16c-11.2 32.8-42.4 55.2-77.6 55.2-35.2 0-66.4-22.4-77.6-55.2l-5.6-16H335.2c-6.4 0-12-5.6-12-12v-106.4z"  horiz-adv-x="1024" />

    
    <glyph glyph-name="kaoqin" unicode="&#59062;" d="M863.9 511.4H159.5c-9.9 0-18-8.1-18-18s8.1-18 18-18H864c9.9 0 18 8.1 18 18s-8.1 18-18.1 18zM895.7 704.1H754.1V814.9c0 9.9-8.1 18-18 18s-18-8.1-18-18v-110.8h-412V814.9c0 9.9-8.1 18-18 18s-18-8.1-18-18v-110.8H127.7c-35.2 0-64-28.8-64-64v-638.9c0-35.2 28.8-64 64-64h768c35.2 0 64 28.8 64 64V640.1c0 35.2-28.8 64-64 64z m28-702.9c0-7.4-2.9-14.4-8.3-19.7-5.3-5.3-12.3-8.3-19.7-8.3h-768c-7.4 0-14.4 2.9-19.7 8.3-5.3 5.3-8.3 12.3-8.3 19.7V640.1c0 7.4 2.9 14.4 8.3 19.7 5.3 5.3 12.3 8.3 19.7 8.3h768c7.4 0 14.4-2.9 19.7-8.3 5.3-5.3 8.3-12.3 8.3-19.7v-638.9zM714.6 398.1L449.5 134.9l-138.8 137c-7.1 7-18.5 6.9-25.5-0.2-7-7.1-6.9-18.5 0.2-25.5l151.5-149.5c3.5-3.5 8.1-5.2 12.6-5.2 4.6 0 9.2 1.7 12.7 5.2L740 372.5c7.1 7 7.1 18.4 0.1 25.5-7 7-18.4 7.1-25.5 0.1z"  horiz-adv-x="1024" />

    
    <glyph glyph-name="ZHicon_" unicode="&#58933;" d="M870.4 844.8H153.6C97.28 844.8 51.2 798.72 51.2 742.4v-716.8c0-56.32 46.08-102.4 102.4-102.4h716.8c56.32 0 102.4 46.08 102.4 102.4V742.4c0 56.32-46.08 102.4-102.4 102.4z m51.2-819.2c0-28.16-23.04-51.2-51.2-51.2H153.6c-28.16 0-51.2 23.04-51.2 51.2V742.4c0 28.16 23.04 51.2 51.2 51.2h716.8c28.16 0 51.2-23.04 51.2-51.2v-716.8zM657.92 271.36c35.84 43.52 58.88 102.4 58.88 163.84 0 140.8-115.2 256-256 256S204.8 576 204.8 435.2s115.2-256 256-256c61.44 0 117.76 20.48 161.28 56.32l168.96-168.96c10.24-10.24 25.6-10.24 35.84 0 10.24 10.24 10.24 25.6 0 35.84l-168.96 168.96zM256 435.2c0 112.64 92.16 204.8 204.8 204.8s204.8-92.16 204.8-204.8-92.16-204.8-204.8-204.8-204.8 92.16-204.8 204.8z"  horiz-adv-x="1024" />

    
    <glyph glyph-name="xieyi" unicode="&#58999;" d="M343.495376 388.401514a20.479195 20.479195 0 0 0 20.246477 20.944631h201.999331a20.944631 20.944631 0 0 0 0-41.656544h-201.999331a20.479195 20.479195 0 0 0-20.246477 20.711913z m20.246477-134.743793H651.614171a20.944631 20.944631 0 0 1 0 41.656544H363.741853a20.944631 20.944631 0 0 1 0-41.656544z m372.348996-80.753188h-372.348996a20.944631 20.944631 0 0 1 0-41.656544h372.348996a20.944631 20.944631 0 0 1 0 41.656544zM930.875918 562.707388V-104.728188a23.271812 23.271812 0 0 0-23.271812-23.271812H221.085644a23.271812 23.271812 0 0 0-23.271812 23.271812v78.193289H141.496046A46.543625 46.543625 0 0 0 93.090676 17.448827V851.743296A46.543625 46.543625 0 0 0 141.496046 895.95974h526.641111a46.543625 46.543625 0 0 0 48.40537-44.216444v-69.815436l207.351847-202.464767a23.271812 23.271812 0 0 0 6.981544-16.755705z m-214.566109 23.271812h133.81292l-133.81292 130.322149zM197.813832 20.008726V771.222826a23.271812 23.271812 0 0 0 23.271812 23.271812h448.68054V849.416115H139.634301v-829.174671h58.179531zM884.332293-81.456375V539.435576h-191.294296a23.271812 23.271812 0 0 0-23.271813 23.271812v186.174498H244.357456V-81.456375z"  horiz-adv-x="1024" />

    
    <glyph glyph-name="xinzi" unicode="&#58887;" d="M970.752 301.824v-215.68c0-44.672-36.224-80.896-80.896-80.896h-755.2C89.984 5.12 53.76 41.472 53.76 86.144V274.944v27.008c44.672 0 80.896 36.224 80.896 80.896 0 44.672-36.224 80.896-80.896 80.896V679.424c0 44.672 36.224 80.896 80.896 80.896h755.072c44.672 0 80.896-36.224 80.896-80.896v-215.68c-44.672 0-80.896-36.224-80.896-80.896 0.128-44.8 36.224-81.024 81.024-81.024z m-54.016 204.416V638.976c0 37.248-3.2 67.456-40.448 67.456H148.096c-37.248 0-40.448-30.208-40.448-67.456v-132.736c47.616-20.864 80.896-68.224 80.896-123.52s-33.28-102.656-80.896-123.52v-132.736c0-37.248 3.2-67.456 40.448-67.456h728.192c37.248 0 40.448 30.208 40.448 67.456V259.328C869.12 280.064 835.84 327.552 835.84 382.72c0 55.296 33.28 102.656 80.896 123.52z m-377.6-339.2h-53.888v107.904H350.464v53.888h134.784V382.72h-107.904v53.888H458.24l-80.896 161.792H431.36l80.896-161.792 80.896 161.792h53.888l-80.896-161.792h80.896V382.72h-107.904v-53.888h134.784v-53.888H539.136v-107.904z"  horiz-adv-x="1024" />

    
    <glyph glyph-name="feiyongbaoxiao" unicode="&#58883;" d="M853.26 493.609c-1.691-0.483-3.14-0.483-4.829-0.483-9.416 0-17.626 6.52-20.040 15.935-9.658 40.083-82.097 56.019-109.866 61.814-7.968-15.694-23.904-26.561-42.496-26.561-11.591 0-21.974 4.346-30.424 11.349 2.414-2.657 5.311-5.313 7.969-8.452 3.863-3.139 7.244-6.278 10.382-9.176 0.241-0.242 0.724-0.482 0.966-0.966 27.044-26.32 154.776-162.020 200.895-286.372 38.151-102.621 40.806-144.394 40.323-178.682-0.724-47.327-2.656-172.644-221.418-175.059-121.456-1.449-146.326-2.173-341.667 0.725-219.246 3.38-221.177 127.491-221.903 174.092-0.482 34.287 2.174 76.302 40.325 178.682 38.392 103.586 106.484 205.724 201.861 287.337 2.655 2.416 5.795 5.796 8.692 9.901 4.588 9.899 6.761 19.8 7.002 29.699-5.070-1.207-10.141-1.932-15.452-3.139-10.143-2.172-20.283 4.106-22.455 14.489-2.174 10.382 4.104 20.524 14.245 22.697 5.553 1.207 11.107 2.172 16.66 3.379-11.348 30.182-34.045 58.675-51.673 80.407-3.863 4.829-7.485 9.176-10.624 13.28-22.938 25.113-31.631 65.92-35.252 86.685-0.483 2.897-0.725 5.070-1.207 6.278l-1.45 5.311c-10.382 36.944-10.623 38.393-4.346 46.602 3.623 4.829 9.176 7.727 15.213 7.727 10.382 0 15.454-7.485 18.834-12.556 4.346-6.519 7.727-10.382 9.899-12.314 3.381 0.724 8.452 1.207 14.247 1.207 14.245 0 31.873-2.416 52.396-5.071 21.732-2.897 46.36-6.278 68.816-6.76 23.18 0 40.325 7.485 58.676 15.213 20.524 8.693 42.014 17.868 68.333 15.935 33.322-2.414 56.986-19.558 77.993-34.528 11.348-8.21 21.972-15.696 33.080-20.524 13.28-5.554 33.803 0 48.534 5.311 8.934 2.898 15.935 5.313 22.697 5.313 8.934 0 14.487-3.865 17.384-7.245 15.454-7.967 9.418-25.112 7.485-30.906-1.449-3.865-3.381-9.418-6.278-18.351-10.141-32.115-59.881-66.885-112.038-108.416-4.828-3.865-8.451-6.52-10.382-8.21-10.118-9.177-17.816-20.844-22.138-34.039 17.792 28.969 30.59 35.487 45.077 35.487 16.177 0 30.666-8.208 39.358-20.766 15.213 10.866 40.807 37.668 43.221 48.292 2.174 10.866 12.798 18.593 23.664 16.902 10.866-1.932 18.351-11.349 17.143-22.455-2.173-16.66-19.8-40.325-39.598-58.917 41.772-11.591 96.824-34.77 108.658-84.995 3.377-11.345-3.383-22.452-14.491-25.107M640.292 677.36c60.606 48.292 94.17 73.403 99.723 90.307 0 0.242 0.242 0.725 0.242 1.207-19.075-6.278-47.809-11.348-69.299-2.172-14.971 6.519-27.769 15.694-40.323 24.628-18.593 13.281-36.219 25.837-58.674 27.527-17.627 1.207-32.84-5.311-51.19-13.039-20.042-8.452-42.497-18.109-71.715-18.109h-2.656c-24.629 0.481-50.466 4.104-73.163 7.244-18.351 2.415-35.736 4.829-47.325 4.829-4.588 0-7.245-0.483-8.694-0.725s-2.898-0.482-4.588-0.724c3.381-18.351 10.866-55.777 26.32-72.679 4.104-5.071 7.485-9.418 11.107-14.005 19.8-24.628 47.325-47.567 60.123-86.443 67.85 10.624 132.562 11.591 187.856 2.899 8.933 23.179 24.388 35.011 30.666 40.324 2.414 1.688 6.278 4.827 11.59 8.931M630.151 578.844c0.966-5.553 2.897-9.176 6.278-13.28-2.655 4.104-4.588 8.451-6.036 13.28 0-0.242-0.242-0.242-0.242 0M638.843 509.544c-2.898 2.416-6.278 5.553-10.141 8.934-1.215 0.836-2.152 1.999-2.693 3.361-2.618 2.194-5.758 5.331-8.655 8.23-12.315 12.555-24.146 24.387-25.837 52.638v4.346c-50.707 7.967-111.314 7.002-174.093-2.655 0.725-17.87-2.655-36.219-11.831-54.812-0.242-0.725-0.725-1.449-1.207-2.174-5.071-7.727-10.624-14.003-16.179-18.592-90.547-77.511-154.776-174.094-190.994-271.644-35.736-96.344-38.393-134.252-37.91-164.677 0.725-46.844 1.932-130.631 184.477-133.287 220.454-3.381 233.976-1.932 340.7-0.724 182.061 1.93 183.269 86.684 183.993 134.010 0.483 30.424-2.172 68.333-37.91 164.677-44.189 120.006-176.75 257.88-191.72 272.368M484.309 363.219zM438.189 200.959l9.418-22.457c-16.177-8.693-33.805-16.901-52.396-24.387v-170.471c-8.694 1.207-16.902 2.414-24.388 3.621-20.042 2.416-35.496 5.071-46.844 7.485l1.932 20.525c5.070 1.207 11.831 1.207 20.524 0 7.485-1.208 14.247-1.932 20.524-1.932v125.56c-23.663-9.901-44.912-18.834-63.744-26.32l-9.418 22.455c23.663 8.694 48.050 19.317 73.162 31.873v109.141h-65.676v22.455h29.941c8.693 1.207 20.525 1.932 35.496 1.932-1.208 32.355-0.725 68.574 1.93 108.658h26.32v-108.658c21.249 0 40.081-0.725 56.261-1.932v-22.455h-56.261v-95.377c3.863 1.207 9.418 3.623 16.902 7.485 8.691 3.623 17.383 7.969 26.317 12.799zM556.264 152.424l18.834 14.971c12.555-18.834 27.525-36.944 44.912-54.328 20.040 32.355 38.15 61.089 54.328 86.201h-149.947v-7.485c0-35.012-0.724-60.606-1.932-76.785v-133.044h-26.319c-2.416 33.803-3.14 104.311-1.932 211.76-1.207 70.024-0.724 141.737 1.932 215.626h26.319v-78.716c1.208-25.113 1.932-60.606 1.932-106.726h110.589c16.177 1.208 37.426 1.932 63.746 1.932l11.348-20.524c-20.042-36.219-43.704-74.37-71.231-114.212 8.694-12.555 25.595-31.872 50.707-58.191 13.764-12.556 24.87-23.663 33.803-33.805l-16.902-14.971c-33.803 31.149-61.814 59.4-84.27 84.269-7.485-11.348-20.040-26.319-37.426-44.912-7.485-8.692-14.971-18.109-22.455-28.008l-16.902 13.039c20.042 26.32 39.358 53.605 58.193 82.579-19.318 21.973-35.012 42.496-47.326 61.33zM546.847 364.185v24.388h88.134c11.348 1.207 29.216 1.932 54.328 1.932-2.416-12.556-5.071-31.148-7.485-56.261-5.071-36.219-8.21-63.021-9.418-80.647-33.805 3.621-61.814 9.416-84.269 16.902l3.863 20.524c18.834-2.414 37.427-5.071 56.261-7.485 0 5.071 1.207 18.109 3.863 39.358 2.416 21.249 4.348 35.012 5.554 41.289h-110.83z"  horiz-adv-x="1024" />

    
    <glyph glyph-name="kehuxinxi" unicode="&#58949;" d="M1154.889143-128H64.158476C28.726857-128 0-99.346286 0-64v896C0 867.346286 28.726857 896 64.158476 896h1090.730667C1190.320762 896 1219.047619 867.346286 1219.047619 832v-896c0-35.346286-28.726857-64-64.158476-64z m0 896c0 35.346286-28.726857 64-64.158476 64H128.323048c-35.437714 0-64.158476-28.653714-64.158477-64v-768c0-35.346286 28.726857-64 64.158477-64h962.407619c35.431619 0 64.158476 28.653714 64.158476 64V768z m-96.24381-224h-256.64a32.042667 32.042667 0 0 0-32.079238 32c0 17.67619 14.360381 32 32.079238 32h256.64a32.042667 32.042667 0 0 0 32.079238-32c0.006095-17.670095-14.360381-32-32.079238-32z m-303.451428-479.993905H686.933333c-38.089143 93.781333-130.133333 160-237.811809 160-107.678476 0-199.722667-66.218667-237.81181-160H143.049143c28.239238 89.660952 95.427048 161.438476 181.327238 197.814857-60.16 40.185905-99.821714 108.53181-99.821714 186.185143 0 123.708952 100.540952 224 224.560762 224 124.025905 0 224.560762-100.291048 224.560761-224 0-77.653333-39.655619-145.999238-99.821714-186.185143 85.912381-36.376381 153.10019-108.153905 181.339429-197.814857zM609.52381 448c0 88.362667-71.814095 160-160.402286 160-88.58819 0-160.402286-71.631238-160.402286-160 0-88.362667 71.808-159.98781 160.384-160h0.036572C537.721905 288.01219 609.52381 359.643429 609.52381 448z m192.481523-32h96.24381a32.042667 32.042667 0 0 0 32.079238-32c0-17.67619-14.366476-32-32.079238-32h-96.24381a32.042667 32.042667 0 0 0-32.079238 32c0 17.67619 14.360381 32 32.079238 32z"  horiz-adv-x="1219" />

    
    <glyph glyph-name="tuihuo4" unicode="&#58945;" d="M610.657807 378.89701h-204.119601l5.10299 20.41196c1.700997 6.803987 5.10299 15.30897 6.803987 22.112957 5.10299 17.009967 5.10299 23.813953 5.10299 25.51495-1.700997 0-3.401993-1.700997-5.10299-3.401993-8.504983-6.803987-20.41196-13.607973-34.019934-20.41196l-3.401993-1.700997c-18.710963-11.906977-40.82392-23.813953-59.534884-37.421927-22.112957-15.30897-32.318937-27.215947-32.318937-39.122924 0-6.803987 5.10299-15.30897 15.30897-22.112956 27.215947-18.710963 105.461794-61.23588 120.770764-68.039868 0 1.700997 3.401993 8.504983-6.803986 37.421927l-13.607974 34.019934H612.358804c23.813953-3.401993 69.740864-22.112957 69.740864-69.740864 0-42.524917-35.72093-69.740864-69.740864-69.740864H353.807309v-52.730897h256.850498c5.10299 0 57.833887 1.700997 91.853821 35.720931 20.41196 20.41196 30.61794 51.0299 30.61794 86.75083 0 0 1.700997 54.431894-34.019933 90.152824-20.41196 20.41196-49.328904 32.318937-88.451828 32.318937z m318.086379 328.292359c0 32.318937-27.215947 59.534884-59.534884 59.534883h-134.378737V836.465116c0 35.72093-30.61794 59.534884-59.534884 59.534884H348.704319C326.591362 896 289.169435 884.093023 289.169435 836.465116v-69.740864H154.790698c-32.318937 0-59.534884-27.215947-59.534884-59.534883v-775.654485c0-32.318937 27.215947-59.534884 59.534884-59.534884h714.418604c32.318937 0 59.534884 27.215947 59.534884 59.534884V707.189369z m-585.142857 136.079734H680.398671v-154.790698H343.601329V843.269103zM874.312292-73.568106H147.986711V713.993355H289.169435v-23.813953c0-28.916944 18.710963-59.534884 59.534884-59.534884h326.591362c39.122924 0 59.534884 28.916944 59.534884 59.534884v23.813953h141.182724V-73.568106h-1.700997z"  horiz-adv-x="1024" />

    
    <glyph glyph-name="tuandui" unicode="&#58908;" d="M955.57056 112.896a24.512 24.512 0 1 0 0 48.96 23.232 23.232 0 0 1 19.136 9.856 25.088 25.088 0 0 1 2.944 22.72 315.008 315.008 0 0 1-196.864 191.552 24.448 24.448 0 1 0 15.232 46.528 364.16 364.16 0 0 0 227.712-221.568 74.24 74.24 0 0 0-9.088-67.456 71.36 71.36 0 0 0-59.072-30.592zM773.68256 382.08a24.512 24.512 0 0 0-11.84 45.888 184.32 184.32 0 0 1 95.488 161.408c0 89.472-63.872 165.76-151.744 181.312a24.576 24.576 0 0 0 8.512 48.256 232.832 232.832 0 0 0 192.192-229.568 233.408 233.408 0 0 0-120.96-204.288 23.616 23.616 0 0 0-11.648-3.008zM750.83456 63.936a24.448 24.448 0 1 0 0 48.96 32 32 0 0 1 26.368 13.632 33.6 33.6 0 0 1 4.032 31.104 377.536 377.536 0 0 1-236.096 229.76 24.576 24.576 0 0 0-15.68 30.912 24.512 24.512 0 0 0 30.848 15.616 426.688 426.688 0 0 0 266.944-259.84c9.152-25.472 5.376-53.824-10.176-75.84a80 80 0 0 0-66.24-34.304zM81.58656 63.936c-26.752 0-50.944 12.48-66.368 34.368a83.2 83.2 0 0 0-10.176 75.776 426.752 426.752 0 0 0 267.008 259.84 24.448 24.448 0 0 0 15.232-46.528 377.344 377.344 0 0 1-236.096-229.76 33.6 33.6 0 0 1 4.032-31.104 32 32 0 0 1 26.368-13.632 24.448 24.448 0 0 0 0-48.96zM416.17856 352.448a272.064 272.064 0 0 0-271.744 271.808A272.064 272.064 0 0 0 416.17856 896a272.064 272.064 0 0 0 271.808-271.744A272.128 272.128 0 0 0 416.17856 352.448z m0 494.592c-122.88 0-222.784-99.968-222.784-222.784S293.29856 401.408 416.17856 401.408s222.784 99.968 222.784 222.848S539.05856 847.04 416.17856 847.04z"  horiz-adv-x="1028" />

    
    <glyph glyph-name="tuihuodan" unicode="&#58939;" d="M512-128A512 512 0 1 0 1024 384 512.551385 512.551385 0 0 0 512-128z m0 994.172718A482.172718 482.172718 0 1 1 994.172718 384 483.275487 483.275487 0 0 1 512 866.172718z m-220.711385-508.035282a40.356103 40.356103 0 0 1-3.990974 18.878359 26.466462 26.466462 0 0 1-25.836308 8.953436H208.764718a16.515282 16.515282 0 0 0-17.880615 21.005128 17.670564 17.670564 0 0 0 17.880615 21.005128h70.603487a57.422769 57.422769 0 0 0 34.789744-7.876923 51.357538 51.357538 0 0 0 11.92041-17.906872 44.058256 44.058256 0 0 0 2.993231-18.878359V244.841026a244.814769 244.814769 0 0 1 1.995487-27.831795 108.071385 108.071385 0 0 1 7.876923-27.831795 169.065026 169.065026 0 0 1 31.822769-40.749949 144.777846 144.777846 0 0 1 54.665846-35.787487 244.184615 244.184615 0 0 1 56.661334-12.918154c17.880615-1.995487 73.517949-2.993231 166.019282-1.995487l67.610256 0.997744c16.909128 0 31.822769 0 44.635898-0.997744h34.789743a65.956103 65.956103 0 0 0 25.862564-2.993231 15.149949 15.149949 0 0 0 9.95118-16.909128 16.515282 16.515282 0 0 0-8.953436-16.909128 646.564103 646.564103 0 0 0-110.276923-3.964718c-118.311385 0-187.890872 0.997744-206.795487 0.997743a334.007795 334.007795 0 0 0-60.652308 6.957949 166.885744 166.885744 0 0 0-60.652308 24.864821 188.809846 188.809846 0 0 0-46.73641 39.778461l-23.867077 27.831795c-5.960205-8.953436-11.92041-17.906872-17.906872-25.836308s-11.92041-14.913641-17.880615-21.871589a113.348923 113.348923 0 0 0-22.869333-19.876103 199.31241 199.31241 0 0 0-26.834052-16.909128 94.523077 94.523077 0 0 0-18.878359-8.953436 23.263179 23.263179 0 0 0-10.922666-1.995487 17.696821 17.696821 0 0 0-10.948923 7.876923 21.582769 21.582769 0 0 0 0.997743 26.834051 92.054974 92.054974 0 0 0 19.876103 10.922667 162.947282 162.947282 0 0 1 39.778461 29.827282A117.707487 117.707487 0 0 1 278.317949 179.2a245.287385 245.287385 0 0 1 10.922666 44.635897l1.995488 21.005129v113.29641z m33.792 177.965949a16.410256 16.410256 0 0 0-16.909128-3.964718 35.708718 35.708718 0 0 0-11.92041 7.876923 89.271795 89.271795 0 0 0-10.056205 19.902359 440.845128 440.845128 0 0 1-19.876103 42.745436 337.657436 337.657436 0 0 1-22.869333 39.752205 157.853538 157.853538 0 0 0-10.922667 15.911384 29.669744 29.669744 0 0 0-2.993231 15.911385c0 7.876923 5.960205 12.918154 21.005129 12.918154a36.050051 36.050051 0 0 0 12.918154-4.962462 88.510359 88.510359 0 0 0 21.871589-28.882051l15.911385-27.831795a543.954051 543.954051 0 0 0 26.965333-51.593846 53.169231 53.169231 0 0 0 5.960205-25.836308 27.122872 27.122872 0 0 0-8.953436-11.92041z m229.664821-125.269334a385.312821 385.312821 0 0 1 32.820513-57.764102 406.580513 406.580513 0 0 1 49.703384-61.650052 438.482051 438.482051 0 0 1 57.764103 35.787488 362.627282 362.627282 0 0 1 46.73641 39.778461 208.843487 208.843487 0 0 0 26.834051 25.862564 11.657846 11.657846 0 0 0 18.878359-1.995487 25.573744 25.573744 0 0 0 6.957949-21.005128A143.333744 143.333744 0 0 0 753.558974 326.235897a565.563077 565.563077 0 0 0-91.451077-61.650051 468.020513 468.020513 0 0 1 107.362462-75.565949 192.905846 192.905846 0 0 0 48.705641-25.836307 36.995282 36.995282 0 0 0 1.995487-8.953436 18.116923 18.116923 0 0 0-21.005128-17.906872 245.943795 245.943795 0 0 0-71.574974 32.794256 481.227487 481.227487 0 0 0-99.40677 74.568206 518.432821 518.432821 0 0 0-67.610256 80.52841 604.317538 604.317538 0 0 0-31.822769 53.694359c-4.962462 9.951179-8.953436 21.005128-13.915898 32.820513H442.420513v-220.711385a527.465026 527.465026 0 0 1 106.390974 36.758974 77.824 77.824 0 0 0 35.787487 13.915898 23.630769 23.630769 0 0 0 14.913641-8.953436 17.985641 17.985641 0 0 0 0-19.876103 19.508513 19.508513 0 0 0-8.953436-8.953436c-3.964718-1.995487-11.92041-4.962462-24.86482-9.951179l-34.789744-15.911385a712.835282 712.835282 0 0 0-72.572718-21.871589c-33.792-8.953436-53.694359-10.948923-60.652307-5.960206a22.081641 22.081641 0 0 0-9.95118 19.876103 23.394462 23.394462 0 0 0 1.995487 7.876923l6.957949 10.108718a60.022154 60.022154 0 0 1 5.960205 30.825026V637.505641a60.074667 60.074667 0 0 0 4.962462 23.867077 42.561641 42.561641 0 0 0 14.913641 17.880615 60.389744 60.389744 0 0 0 35.787487 6.957949h270.441026c35.787487 0 53.694359-15.911385 53.694359-48.705641v-172.977231a65.273436 65.273436 0 0 0-3.964718-24.86482 51.305026 51.305026 0 0 0-11.920411-18.878359 58.368 58.368 0 0 0-36.758974-7.876923h-175.051487v-1.995487z m188.888615 156.960821v44.635897a62.017641 62.017641 0 0 1-2.99323 23.867077 17.77559 17.77559 0 0 1-9.95118 8.953436A64.827077 64.827077 0 0 1 708.923077 647.456821h-227.748103a78.926769 78.926769 0 0 1-25.836307-2.993231 17.77559 17.77559 0 0 1-9.95118-8.953436 41.537641 41.537641 0 0 1-2.993231-17.880616V567.794872h301.239795z m0-35.787487H442.420513v-84.493129h267.421538a58.026667 58.026667 0 0 1 21.005128 2.993231 21.740308 21.740308 0 0 1 9.95118 8.953436 53.536821 53.536821 0 0 1 2.993231 21.87159v50.806154z"  horiz-adv-x="1024" />

    
    <glyph glyph-name="shenhe1" unicode="&#59002;" d="M640.132129 17.044645c127.735742 0 231.258839 102.532129 231.258839 229.012645 0 126.447484-103.523097 228.979613-231.258839 228.979613-127.735742 0-231.291871-102.532129-231.291871-228.979613 0-126.480516 103.556129-229.012645 231.291871-229.012645z m228.021677 44.725678a12.354065 12.354065 0 0 0 2.609549-1.981936l129.981935-128.660645c8.984774-8.91871 8.984774-33.197419 0-42.083097-8.984774-8.91871-33.527742-8.91871-42.512516 0l-129.981935 128.660645a12.288 12.288 0 0 0-1.981936 2.576516 294.945032 294.945032 0 0 0-186.136774-65.668129c-162.584774 0-294.350452 130.477419-294.350452 291.443613 0 160.933161 131.79871 291.410581 294.31742 291.410581 162.584774 0 294.383484-130.477419 294.383484-291.410581a288.437677 288.437677 0 0 0-66.328775-184.286967z m-38.48258 234.099612c-32.900129 106.562065-146.795355 166.515613-254.414452 133.945807l13.477161-43.569548c83.307355 25.236645 171.470452-21.20671 196.938323-103.688259l43.998968 13.312z m44.923871 478.670452v-250.450581h-69.830194V774.540387a29.795097 29.795097 0 0 1-29.927226 29.662968H116.273548c-16.516129 0-29.960258-13.278968-29.960258-29.662968v-632.237419c0-16.350968 13.411097-29.629935 29.960258-29.629936h201.761033v-69.136516H116.306581C61.175742 43.536516 16.516129 87.76671 16.516129 142.302968V774.573419C16.516129 829.109677 61.175742 873.339871 116.273548 873.339871h658.564129c55.097806 0 99.757419-44.230194 99.75742-98.766452z m-673.858065-98.766452H690.374194a34.584774 34.584774 0 1 0 0-69.169548H200.770065a34.584774 34.584774 0 1 0 0 69.136516z m0-207.44258h110.459871a34.584774 34.584774 0 1 0 0-69.169549H200.770065a34.584774 34.584774 0 1 0 0 69.169549z"  horiz-adv-x="1024" />

    
    <glyph glyph-name="biaodan" unicode="&#59798;" d="M860 392c-19.9 0-36-16.1-36-36 0-1.4 0.1-2.7 0.2-4h-0.2v-344H136V696h376c19.9 0 36 16.1 36 36s-16.1 36-36 36H136c-39.8 0-72-32.2-72-72v-688c0-39.8 32.2-72 72-72h688c39.8 0 72 32.2 72 72V352h-0.2c0.1 1.3 0.2 2.6 0.2 4 0 19.9-16.1 36-36 36zM1002.7 795.7L923.4 875c-28.1 28.1-73.9 27.9-102-0.2L424.2 477.6c-2.9-2.9-5.2-6.4-6.8-10.2L317.6 232c-5.6-13.2-1.7-26.5 6.8-35.1 8.5-8.6 21.9-12.5 35.2-6.9l235.5 99.7c3.8 1.6 7.2 3.9 10.2 6.8l397.2 397.2c28.1 28.1 28.3 73.9 0.2 102zM559.8 353l-137.4-58.2 58.2 137.4L759.4 711l79.2-79.2L559.8 353z m391.7 391.7l-62-62-79.2 79.2 62 62 0.2 0.2 79.2-79.2-0.2-0.2z"  horiz-adv-x="1024" />

    
    <glyph glyph-name="qingjia" unicode="&#58955;" d="M542-43.1H198.3c-54.3 0-98.5 44.2-98.5 98.5V680c0 54.3 44.2 98.5 98.5 98.5h599.2c54.3 0 98.5-44.2 98.5-98.5v-331.5c0-8.6-7-15.6-15.6-15.6s-15.6 7-15.6 15.6V680c0 37.1-30.2 67.2-67.3 67.2H198.3c-37.1 0-67.2-30.2-67.2-67.2v-624.7c0-37.1 30.2-67.2 67.2-67.2H542c8.6 0 15.6-7 15.6-15.6s-7-15.6-15.6-15.6zM370.5 684.2c-12.9 0-23.4 10.5-23.4 23.4V830.9c0 12.9 10.5 23.4 23.4 23.4s23.4-10.5 23.4-23.4v-123.3c0-12.9-10.5-23.4-23.4-23.4zM676.4 684.2c-12.9 0-23.4 10.5-23.4 23.4V830.9c0 12.9 10.5 23.4 23.4 23.4 12.9 0 23.4-10.5 23.4-23.4v-123.3c0.1-12.9-10.4-23.4-23.4-23.4zM755 432.5H266.3c-6.5 0-11.7 5.2-11.7 11.7s5.2 11.7 11.7 11.7H755c6.5 0 11.7-5.2 11.7-11.7s-5.2-11.7-11.7-11.7zM510.7 207.2H266.3c-6.5 0-11.7 5.2-11.7 11.7s5.2 11.7 11.7 11.7h244.3c6.5 0 11.7-5.2 11.7-11.7s-5.1-11.7-11.6-11.7zM780.7-90.4c-97.6 0-177.1 79.4-177.1 177.1s79.4 177 177.1 177 177.1-79.4 177.1-177.1-79.5-177-177.1-177z m0 322.9c-80.4 0-145.9-65.4-145.9-145.9s65.4-145.9 145.9-145.9 145.9 65.4 145.9 145.9-65.5 145.9-145.9 145.9zM785.7 52.2h-59.3c-8.6 0-15.6 7-15.6 15.6s7 15.6 15.6 15.6h57.7v65.1c0 8.6 7 15.6 15.6 15.6s15.6-7 15.6-15.6v-66.8c0-16.2-13.3-29.5-29.6-29.5z"  horiz-adv-x="1024" />

    
    <glyph glyph-name="sousuo" unicode="&#58900;" d="M908.6 12.9l-155 155c28.1 30.9 50.5 66 66.8 104.4 19.3 45.6 29 94 29 143.9 0 49.9-9.8 98.3-29 143.9-18.6 44-45.3 83.5-79.2 117.5-33.9 33.9-73.5 60.6-117.5 79.2-45.6 19.3-94 29-143.9 29-49.9 0-98.3-9.8-143.9-29-44-18.6-83.5-45.3-117.5-79.2s-60.6-73.5-79.2-117.5c-19.3-45.6-29-94-29-143.9 0-49.9 9.8-98.3 29-143.9 18.6-44 45.3-83.5 79.2-117.5s73.5-60.6 117.5-79.2c45.6-19.3 94-29 143.9-29 49.9 0 98.3 9.8 143.9 29 38.5 16.3 73.6 38.7 104.4 66.8l155-155c3.5-3.5 8.1-5.3 12.7-5.3s9.2 1.8 12.7 5.3c7.1 7.1 7.1 18.5 0.1 25.5z m-428.8 69.7c-184 0-333.6 149.7-333.6 333.6 0 184 149.7 333.6 333.6 333.6 184 0 333.6-149.7 333.6-333.6 0-184-149.6-333.6-333.6-333.6z"  horiz-adv-x="1024" />

    
    <glyph glyph-name="kaoqin1" unicode="&#59137;" d="M698.88 401.92l-247.296-245.248L325.12 281.6c-10.24 9.728-26.112 9.728-36.352 0-9.728-10.24-9.728-26.112 0-36.352L433.664 102.4c5.12-5.12 11.264-7.168 17.92-7.168 6.656 0 12.8 2.56 17.92 7.68l265.216 263.168c10.24 9.728 10.24 26.112 0 36.352-9.728 9.728-26.112 9.728-35.84-0.512zM860.16 716.8h-117.76V819.2c0 14.336-11.264 25.6-25.6 25.6s-25.6-11.264-25.6-25.6v-102.4H332.8V819.2c0 14.336-11.264 25.6-25.6 25.6s-25.6-11.264-25.6-25.6v-102.4H163.84c-48.128 0-87.04-38.912-87.04-87.04v-593.92c0-48.128 38.912-87.04 87.04-87.04h696.32c48.128 0 87.04 38.912 87.04 87.04V629.76c0 48.128-38.912 87.04-87.04 87.04z m35.84-680.96c0-19.968-15.872-35.84-35.84-35.84H163.84c-19.968 0-35.84 15.872-35.84 35.84V629.76c0 19.968 15.872 35.84 35.84 35.84h696.32c19.968 0 35.84-15.872 35.84-35.84v-593.92zM793.6 537.6H230.4c-14.336 0-25.6-11.264-25.6-25.6s11.264-25.6 25.6-25.6h563.2c14.336 0 25.6 11.264 25.6 25.6s-11.264 25.6-25.6 25.6z"  horiz-adv-x="1024" />

    
    <glyph glyph-name="tuihuo" unicode="&#59028;" d="M512.001-128c-93.474 0-184.955 25.437-264.547 73.561-16.834 10.177-22.229 32.074-12.051 48.905 10.177 16.832 32.076 22.227 48.906 12.048 68.475-41.397 147.211-63.282 227.694-63.282 243.043 0 440.77 197.73 440.77 440.77S755.043 824.768 512.001 824.768c-243.04 0-440.768-197.726-440.768-440.766 0-85.786 24.649-168.925 71.284-240.433 10.744-16.478 6.098-38.542-10.378-49.288-16.475-10.742-38.544-6.102-49.29 10.379C28.65 187.77 0 284.364 0 384.002c0 136.76 53.257 265.335 149.96 362.038C246.666 842.743 375.24 896 512 896c136.762 0 265.335-53.257 362.038-149.96C970.744 649.337 1024 520.76 1024 384.002c0-136.76-53.256-265.338-149.962-362.041C777.338-74.744 648.763-128 512.001-128zM548.987 132.281c-93.108 0-156.961 25.03-191.548 75.075-10.307-20.975-24.109-38.45-41.402-52.44-10.677-8.464-20.242-14.908-28.703-19.32-8.47-4.417-15.276-6.624-20.427-6.624-3.311 1.102-7.547 3.405-12.697 6.9-5.156 3.502-7.726 8.193-7.726 14.076 0 3.682 1.378 7.453 4.139 11.314 2.76 3.866 7.814 7.646 15.18 11.319h-0.553c44.162 24.287 66.242 53.545 66.242 87.771V433.681c0 4.777-1.657 7.176-4.97 7.176h-59.617c-13.247 0-19.873 6.253-19.873 18.766 0 7.73 1.38 13.61 4.14 17.665 2.76 4.046 8.005 6.072 15.733 6.072h70.106c7.729 0 13.982-0.465 18.769-1.38 4.778-0.922 8.46-3.037 11.04-6.348 2.57-3.314 4.322-7.918 5.243-13.801 0.914-5.891 1.38-13.8 1.38-23.739V265.87c5.883-28.345 23.185-50.694 51.89-67.073 28.703-16.37 66.243-24.565 112.612-24.565H757.09c13.612 0 20.426-6.989 20.426-20.977 0-13.981-6.814-20.977-20.426-20.977l-208.104 0.003zM400.496 547.395c0-5.52-2.303-10.676-6.9-15.455-4.606-4.788-9.66-7.176-15.181-7.176-5.89 0-13.99 5.15-24.289 15.455-4.786 4.78-10.126 9.843-16.009 15.18-5.89 5.33-12.514 10.766-19.871 16.284-7.366 6.254-13.716 11.402-19.045 15.457-5.34 4.046-10.032 7.175-14.077 9.383-5.158 2.944-9.022 6.253-11.592 9.937-2.58 3.673-3.864 7.176-3.864 10.487 1.466 4.78 3.491 9.662 6.072 14.628 2.57 4.97 7.537 7.454 14.904 7.454 6.253 0 14.163-3.684 23.738-11.041 5.147-3.684 11.401-8.47 18.767-14.353a8329.47 8329.47 0 0 0 25.392-20.425h-0.553c20.237-16.2 32.199-26.315 35.883-30.362 4.416-5.153 6.625-10.304 6.625-15.453z m314.647-218.044c-6.624-5.52-14.075-11.23-22.357-17.114-8.28-5.892-17.58-11.962-27.876-18.217a322.051 322.051 0 0 1 8.554-8.277 248.685 248.685 0 0 1 8.006-7.18c16.562-15.093 29.62-26.962 39.192-35.603 9.567-8.65 15.267-13.895 17.113-15.733 3.312-3.31 5.796-6.719 7.454-10.213 1.655-3.493 2.481-6.53 2.481-9.109 0-5.88-2.578-11.04-7.728-15.455-4.788-4.045-9.66-6.072-14.628-6.072-4.969 0-9.85 2.397-14.627 7.176h0.551a1638.113 1638.113 0 0 0-31.742 30.361 1649.503 1649.503 0 0 1-31.738 30.36c-19.874 18.396-42.506 39.194-67.898 62.378-25.394 23.184-52.993 48.025-82.803 74.523h-31.465v-142.421c0-4.786 0.363-7.175 1.105-7.175 1.465 0 6.072 1.188 13.8 3.59a2519.855 2519.855 0 0 1 25.39 8.002 6335.577 6335.577 0 0 0 30.085 11.316c9.386 3.493 16.649 6.71 21.807 9.66 12.505 6.253 22.08 9.29 28.704 9.107 6.624-0.19 11.22-2.674 13.8-7.452h-0.552c2.94-4.786 4.414-8.83 4.414-12.144 0-2.207-0.37-4.234-1.102-6.073-0.741-1.846-2.483-3.958-5.244-6.347-2.76-2.4-6.625-5.158-11.593-8.28-4.969-3.132-11.868-6.72-20.7-10.764-8.102-3.682-17.113-7.271-27.049-10.764a5353.396 5353.396 0 0 0-32.57-11.315c-24.658-8.09-41.59-12.145-50.785-12.145-11.04 0-19.32 4.606-24.84 13.802-4.055 6.994-6.072 17.842-6.072 32.568V580.516c0 18.028 3.122 30.266 9.383 36.71 6.255 6.434 17.846 9.663 34.777 9.663h220.257c16.923 0 28.704-3.41 35.33-10.215 6.623-6.814 9.935-18.864 9.935-36.155v-141.316c0-17.664-3.406-30.085-10.213-37.262-6.814-7.176-18.493-10.763-35.053-10.763H557.267c14.355-12.886 27.782-24.755 40.297-35.606a2110.474 2110.474 0 0 0 37.539-33.395c11.771 7.357 23.458 15.637 35.052 24.84 11.593 9.194 22.165 18.579 31.74 28.151 6.623 6.624 12.506 10.394 17.665 11.317 5.15 0.914 9.47 0.275 12.974-1.931 3.491-2.21 6.157-5.158 8.001-8.834 1.838-3.681 2.76-6.443 2.76-8.279 0-9.576-9.382-22.271-28.152-38.09z m-22.08 199.828V576.1c0 6.253-2.578 9.385-7.728 9.385H472.257c-2.947 0-4.786-0.741-5.518-2.21-0.743-1.474-1.105-3.863-1.105-7.175v-46.92h227.429z m0-40.296H465.632v-56.306h219.703c5.15 0 7.728 3.492 7.728 10.487v45.819z"  horiz-adv-x="1028" />

    
    <glyph glyph-name="kaipiao" unicode="&#58895;" d="M832 832c70.4 0 128-57.6 128-128v-640c0-70.4-57.6-128-128-128H192c-70.4 0-128 57.6-128 128V704c0 70.4 57.6 128 128 128h640m0 64H192C89.6 896 0 806.4 0 704v-640c0-102.4 89.6-192 192-192h640c102.4 0 192 89.6 192 192V704c0 102.4-89.6 192-192 192zM851.2 697.6v-51.2H620.8v-64h172.8v-166.4H230.4V582.4h172.8v64H172.8v51.2h678.4z m-441.6-550.4c-51.2-44.8-115.2-83.2-192-115.2l-32 44.8c76.8 32 140.8 64 192 108.8l32-38.4z m428.8 108.8v-51.2H544v-115.2c0-44.8-25.6-64-70.4-64h-64l-12.8 51.2h57.6c25.6 0 38.4 12.8 38.4 32v102.4H185.6V256h652.8zM768 358.4v-44.8H256v44.8h512zM403.2 537.6H281.6v-76.8h115.2V537.6z m166.4 108.8H454.4v-64h115.2v64z m0-108.8H454.4v-76.8h115.2V537.6z m166.4 0H620.8v-76.8h115.2V537.6z m115.2-467.2l-38.4-38.4c-44.8 38.4-102.4 76.8-179.2 115.2l38.4 32c70.4-32 128-70.4 179.2-108.8z"  horiz-adv-x="1024" />

    
    <glyph glyph-name="xieyi11" unicode="&#58937;" d="M806.586816-126.814362H106.527208a82.651666 82.651666 0 0 0-82.651665 82.651666V810.868784A85.544474 85.544474 0 0 0 109.006758 896h726.094883a85.544474 85.544474 0 0 0 85.131215-85.131216v-181.833664a51.657291 51.657291 0 0 0-51.657291-52.070549c-28.514825 0-26.035275 28.101566-26.035275 57.856166V786.486543a41.325833 41.325833 0 0 1-41.325832 41.325833H133.802258a41.325833 41.325833 0 0 1-41.325833-41.325833v-804.200706a41.325833 41.325833 0 0 1 41.325833-41.325833h670.718266a38.019766 38.019766 0 0 1 38.019766 38.019766v136.788507c0 29.7546-2.47955 64.881557 26.035275 64.881557a51.657291 51.657291 0 0 0 51.657291-52.070549V-13.168322a105.380874 105.380874 0 0 0-113.64604-114.472557zM914.44724 507.537172l-198.363998-203.323098a41.325833 41.325833 0 0 1-11.157975-21.902691l-12.811008-59.509199a14.464041 14.464041 0 0 1 18.596625-16.530333l60.335716 16.117074a41.325833 41.325833 0 0 1 17.356849 12.39775l198.777256 203.323098a41.325833 41.325833 0 0 1 0 57.856165L974.369697 507.537172a41.325833 41.325833 0 0 1-59.922457 0zM265.218406 73.202669a25.622016 25.622016 0 0 0-12.811008 3.306067 26.035275 26.035275 0 0 0-9.9182 34.300441C354.482205 308.759916 395.808038 302.147783 410.272079 299.668233s28.928083-9.091683 35.126958-41.325833a525.664593 525.664593 0 0 0 8.265167-74.386499v-14.8773l18.596625 20.662916c38.433025 41.325833 61.988749 68.187624 91.33009 61.575491s33.060666-33.473925 35.540216-41.325833a105.794132 105.794132 0 0 0 2.892809-41.325832l13.224266 5.785616a26.035275 26.035275 0 0 0 21.489433-47.111449c-41.325833-19.009883-63.228524-28.101566-82.651666-13.637525a41.325833 41.325833 0 0 0-8.265166 44.218641 73.559982 73.559982 0 0 1 0 38.019766 519.465718 519.465718 0 0 1-38.433025-41.325832l-20.662916-22.729209c-11.157975-11.984492-33.887183-36.779991-59.509199-27.688307s-26.861791 37.606508-29.341342 76.45279A533.516501 533.516501 0 0 1 395.808038 241.812067a752.956674 752.956674 0 0 1-108.68694-155.385132 25.622016 25.622016 0 0 0-22.729208-13.224266zM196.204265 704.248136h517.399427V652.177586H196.204265z m0-103.727841h517.399427v-52.070549H196.204265z m0-103.72784h413.258328v-51.657291h-413.258328z m0 0"  horiz-adv-x="1024" />

    
    <glyph glyph-name="tuihuo3" unicode="&#58981;" d="M511.9-128c-21 0-42.1 1.3-63.1 3.9-68 8.4-132.8 30.2-192.7 64.8-59.8 34.5-111.1 79.8-152.4 134.5-40 52.8-68.9 112.1-86.1 176.3C0.3 315.7-4.2 381.6 3.9 447.3c8.4 68 30.2 132.8 64.8 192.7 31.4 54.4 71.8 101.8 120 141.1C235.3 819 287.9 848.2 345 867.9c115.3 39.7 241 37.2 354-7.3 11.4-4.5 17.1-17.4 12.6-28.9-4.5-11.4-17.4-17.1-28.9-12.6C579.6 859.7 464.9 862 359.5 825.7c-52.1-18-100.1-44.6-142.7-79.3-44-35.8-80.9-79.2-109.6-128.9C75.7 563 55.8 503.9 48.1 441.8c-7.4-60-3.2-120.1 12.5-178.8 15.7-58.6 42.2-112.8 78.6-161 37.7-49.9 84.5-91.2 139.2-122.8s113.8-51.5 175.9-59.2c60-7.4 120.1-3.2 178.8 12.5 58.6 15.7 112.8 42.2 161 78.6 49.9 37.7 91.2 84.5 122.8 139.2 28.7 49.6 47.8 103.2 56.8 159.3 8.7 54.2 7.8 109.1-2.7 163.2-21.2 109.3-80.6 207.5-167.2 276.5-9.6 7.7-11.2 21.7-3.5 31.3 7.7 9.6 21.7 11.2 31.3 3.5 94.9-75.6 159.9-183.1 183.1-302.9 11.5-59.3 12.5-119.4 2.9-178.7-9.9-61.4-30.8-120.1-62.2-174.5-34.5-59.8-79.8-111.1-134.5-152.4-52.8-39.9-112.1-68.9-176.3-86.1-43.8-11.6-88.2-17.5-132.7-17.5zM518.2 154.6c-33.4 1.1-60.4 4.3-80.3 10.2-20.5 6.5-38.3 19.4-54.5 39.9-7.5 9.7-14 14-19.9 14-14.6 0-37.7-24.8-69.6-74.9l-22.1 19.4c30.2 46.9 56.1 74.4 78.2 82V417.7h-79.8v28h107.3v-202.2c5.4-3.2 10.2-8.1 15.6-14.6 12.9-16.2 27-28 42.1-35.6 16.7-6.5 40.4-10.2 71.2-11.3 25.9-0.5 59.3-1.1 99.2-1.1h83.6c28 1.1 49.6 1.6 64.7 2.2l-7-29.7h-137c-28.1 0.1-58.8 0.6-91.7 1.2zM396.3 539l-20.5-20.5c-22.6 27-53.4 56.1-92.2 86.3l20.5 19.4c36.7-28 67.4-56.6 92.2-85.2z m88.5-278.2c38.8 6.5 76.6 15.6 114.3 26.4l6.5-27c-41-11.3-92.7-22.1-155.3-32.4l-6.5 24.3c8.1 3.2 12.4 7.5 12.4 13.5V610.2h248.6v-189.8h-220v-159.6z m191.4 323H484.8v-55.5h191.4v55.5z m-191.4-137h191.4v56.1H484.8v-56.1z m158.5-112.1c22.6 18.9 42.1 38.8 58.8 59.3l21.6-16.7c-19.4-22.6-38.8-42.6-58.8-58.8 28-21.6 53.9-44.2 77.6-67.4L723.6 229c-48 50.7-109.5 98.1-183.9 141.8l16.2 20.5c31.3-18.4 60.4-37.2 87.4-56.6z"  horiz-adv-x="1024" />

    
    <glyph glyph-name="dingdanchuli" unicode="&#58901;" d="M181.11535244 613.62781582h81.09696358V696.92850146H181.11535244z m0-167.04211553h81.09696358V529.8863859400001H181.11535244z m0-167.04211552h81.09696358v83.30068564H181.11535244z m0-167.04211553h81.09696358v83.74142988H181.11535244z m167.04211553 520.0783541H686.64914317a25.56317373 25.56317373 0 1 1-1e-8 51.5670917H348.15746797a25.56317373 25.56317373 0 1 1 0-51.5670917z m0-167.04211553H686.64914317a25.56317373 25.56317373 0 1 1-1e-8 51.5670917H348.15746797a25.56317373 25.56317373 0 1 1 0-51.5670917z m598.53085224-92.99706152L862.94689033 457.16356552a26.44466221 26.44466221 0 0 1-36.14103809 0l-7.93339892-6.17042196V808.43682627a25.56317373 25.56317373 0 0 1-25.56317285 25.56317373H95.17020049A25.56317373 25.56317373 0 0 1 69.60702763 808.43682627v-788.05093008a25.56317373 25.56317373 0 0 1 25.56317286-23.8001959h367.14005948l53.33006776-53.33006865a25.56317373 25.56317373 0 0 1 36.14103897 0L605.55217959-3.414299710000023h187.75710088a25.56317373 25.56317373 0 0 1 25.56317285 25.56317373V208.14299706999998l127.81586689 127.81586689a25.56317373 25.56317373 0 0 1 0 36.58178232z m-825.51420175-326.15083213V782.43290918h646.57198828v-383.00685645l-60.38197822-60.38197822A25.56317373 25.56317373 0 0 1 686.64914317 349.18119463000005H348.15746797a25.56317373 25.56317373 0 1 1 0-51.56709082h319.09892256l-129.57884385-129.57884385-101.37120468 102.25269317a25.56317373 25.56317373 0 0 1-36.14103809 0l-88.14887402-88.14887402a25.56317373 25.56317373 0 0 1 0-36.14103809l99.16748261-99.16748262z m646.57198828 0h-110.62683633l110.62683633 110.62683633zM818.87245332 280.86581748000003l-51.56709082-51.56709082-183.34965761-183.34965674L534.1515919-3.414299710000023 483.90673378 46.389814160000014l-117.67874677 117.23800166L418.23582295 216.95788447999996l100.93046045-100.93046046a25.56317373 25.56317373 0 0 1 36.14103808 1e-8l211.99804102 211.99804101L818.87245332 378.27032314999997l24.68168438 24.68168437 48.92262538-48.48188028z"  horiz-adv-x="1024" />

    
    <glyph glyph-name="demo" unicode="&#58916;" d="M334.872 650.813l18.895 15.323 24.76-1.828-9.473 21.82 9.472 21.834-24.759-1.829-18.895 15.324-5.827-22.955-21.163-12.361 21.163-12.361 5.827-22.967z m344.283 26.039l17.506-17.603 7.144 22.698 21.467 10.29-19.907 14.835-4.255 23.954-19.431-13.531-24.089 4.535 7.888-23.199-10.63-21.175 24.307-0.804z m-192.95 27.623l23.405 6.632 22.028-11.447-0.097 23.796 17.323 16.323-23.48 8.082-11.324 21.529-14.397-18.798-24.32-3.023 14.567-19.7-3.705-23.394zM231.314 562.347l16.664-16.835 8.521 22.784 22.26 10.983-19.236 13.995-2.914 23.625-20.407-14.129-24.052 3.62 6.608-22.734-11.96-21.395 24.516 0.086zM694.93 98.109l-18.749-15.275-24.552 1.829 9.4-21.772-9.4-21.785 24.552 1.817 18.749-15.287 5.778 22.906 20.98 12.336-20.98 12.325-5.778 22.906zM545.01 56.308L521.79 49.7l-21.846 11.422 0.098-23.735-17.177-16.286 23.284-8.058 11.24-21.48 14.287 18.761 24.125 3-14.458 19.662 3.67 23.32z m-181.065 26.855l-17.335 17.53-7.131-22.637-21.321-10.29 19.724-14.762 4.157-23.881 19.322 13.52 23.893-4.475-7.777 23.114 10.593 21.113-24.125 0.768zM512.402 895.94C230.082 895.939 0.402 666.283 0.402 384s229.68-511.939 512-511.939S1024.39 101.717 1024.39 384C1024.402 666.283 794.72 895.939 512.402 895.939z m0-989.891c-263.57 0-478 214.418-478 477.952s214.43 477.952 478 477.952 478-214.406 478-477.952c0-263.534-214.43-477.952-478-477.952z m0 907.24C275.662 813.288 83.066 620.715 83.066 384s192.597-429.288 429.336-429.288S941.738 147.285 941.738 384 749.141 813.288 512.402 813.288z m318.927-614.413l-17.664 15.58-6.827-23.272L785.59 178.7l20.017-12.593 4.535-23.296 19.2 15.495 23.808-1.89c-73.618-109.824-198.875-182.272-340.736-182.272-226.036-0.012-409.917 183.857-409.917 409.856 0 226 183.881 409.868 409.917 409.868C738.438 793.868 922.331 610 922.331 384a407.491 407.491 0 0 0-69.01-227.352l-8.058 21.894 10.313 22.113-24.247-1.78zM681.18 589.91a266.728 266.728 0 0 1-168.777 60.319c-127.659 0-237.641-90.868-261.522-216.076l16.7-3.182c22.346 117.2 125.319 202.264 244.822 202.264 57.502 0 113.615-20.053 158-56.466l10.777 13.141zM512.402 134.766c-57.515 0-113.615 20.053-158 56.466l-10.777-13.141a266.728 266.728 0 0 1 168.79-60.319c127.658 0 237.64 90.88 261.521 216.076l-16.7 3.182c-22.358-117.2-125.319-202.264-244.834-202.264z"  horiz-adv-x="1025" />

    
    <glyph glyph-name="gototop" unicode="&#58899;" d="M512-128c-282.784 0-512 229.216-512 512 0 282.752 229.216 512 512 512 282.752 0 512-229.248 512-512 0-282.784-229.248-512-512-512z m0 977.44c-257.056 0-465.472-208.384-465.472-465.44 0-257.056 208.416-465.472 465.472-465.472s465.44 208.416 465.44 465.472S769.088 849.408 512 849.408z m194.24-580.064a28.928 28.928 0 0 0-20-7.776 28.928 28.928 0 0 0-20 7.776l-126.176 119.232v-244.128c0-14.4-12.576-26.144-28.064-26.144s-28.096 11.744-28.096 26.144v244.16l-126.176-119.264a28.8 28.8 0 0 0-19.936-7.776 28.864 28.864 0 0 0-20 7.776 25.088 25.088 0 0 0-8.064 18.368c0 6.912 2.88 13.408 8.064 18.304l174.24 164.672a28.8 28.8 0 0 0 19.968 7.776 28.8 28.8 0 0 0 19.968-7.776l174.24-164.672a25.056 25.056 0 0 0 8.064-18.304c0-6.912-2.88-13.44-8.064-18.368z m-13.312 247.36h-361.856c-16.672 0-30.24 12.672-30.24 28.224s13.568 28.16 30.24 28.16h361.856c16.672 0 30.24-12.608 30.24-28.16s-13.568-28.224-30.24-28.224z"  horiz-adv-x="1024" />

    
    <glyph glyph-name="qianshou" unicode="&#59453;" d="M681.355245 693.847573a310.696811 310.696811 0 0 0 123.733642-25.61886l39.790995 10.629101a337.269564 337.269564 0 0 1-451.736811-121.280772l39.518454 10.629101A309.061564 309.061564 0 0 0 681.355245 693.847573z m-175.107633 15.943652l-10.901642 24.937507 10.901642 24.937507-28.34427-2.180328-21.530744 17.442628-6.677256-26.300213-24.256155-13.627053 24.256155-13.627053 6.677256-26.300212 21.530744 17.442628z m319.145584 65.273584l9.130126-26.572753-12.128078-24.256155 27.254107-0.817623 20.168038-20.304309 8.176232 26.027671 24.528696 11.855537-22.757179 17.033816-4.905739 27.254106-21.667015-15.126029zM617.035554 804.499244l16.625005-22.484638-4.224387-27.254106 27.254107 7.494879 25.210048-13.627053v27.254107l19.759227 18.669062-27.254106 9.266396-13.627054 24.664967-15.943652-20.576851z m-301.157874-161.61685l7.49488-26.027671-13.627054-24.528696h28.07173l19.077874-19.214145 9.811478 26.163942 25.346319 12.67316-21.803285 16.079922-3.406763 27.254107-23.302261-16.079923zM39.929855 435.342375a53.690589 53.690589 0 0 1-38.019478-66.091207l83.670106-312.195787a54.508212 54.508212 0 0 1 65.954937-38.019478l1171.926567 313.422221a54.508212 54.508212 0 0 1 38.019478 65.954938l-84.351458 312.604598a54.508212 54.508212 0 0 1-65.954938 38.019478l-1171.926567-313.422221z m-8.585044-72.223381a40.881159 40.881159 0 0 0 28.480541 49.466203l1144.672461 307.017506A40.881159 40.881159 0 0 0 1254.509098 691.530974l76.720309-286.168115a40.881159 40.881159 0 0 0-28.616811-49.466203l-1144.672461-307.017507a40.881159 40.881159 0 0 0-49.466203 28.616812L31.344811 363.118994zM681.355245 868.682664a483.351574 483.351574 0 0 0 342.992926-141.585082l29.706976 7.903691a512.240926 512.240926 0 0 1-871.313776-233.295149l29.843247 7.903691A485.395632 485.395632 0 0 0 681.355245 868.682664zM517.830607 89.078956a337.269564 337.269564 0 0 1 451.736811 121.280773l-39.518454-10.629102a309.606647 309.606647 0 0 0-372.699903-99.886299z m299.795169-43.470299l10.901642-24.937508-10.901642-24.937507 28.208 2.044058 21.394473-17.442628 6.677256 26.300213 23.983614 13.627053-23.983614 13.627053-6.677256 26.300212-21.394473-17.442628z m-109.016425-81.762319l-16.625005 22.484638 4.224387 27.254106-26.572754-7.494879-24.937507 13.627053v-27.254107l-19.622957-18.805333 27.254107-9.266396 12.809429-24.528696L681.355245-39.151614z m340.676328 163.524637l-9.402667 25.346319 11.855536 25.210048-27.254106-2.044058-20.304309 17.85144-7.767421-26.572754-24.256154-14.308405 22.620908-13.627054 5.17828-27.254106L1022.031572 130.232656zM681.355245-101.154705a483.215303 483.215303 0 0 0-342.856657 141.993893l-29.706975-7.903691A512.240926 512.240926 0 0 1 1179.969118 266.366917l-29.843246-7.903691A485.395632 485.395632 0 0 0 681.355245-101.154705z m-167.612754 93.890396l-8.857584 26.572753 12.128077 24.119884-27.254106 0.817623-20.168039 20.44058-8.176231-26.027671-24.392426-11.855537L459.643091 10.178319l4.769468-27.254107 22.075826 14.989759zM539.633892 274.270608a91.573797 91.573797 0 0 0-1.226434-50.283826Q531.45766 208.315671 501.614414 200.957062l-135.044096-36.520502a65.001043 65.001043 0 0 0-32.432387-2.58914 25.75513 25.75513 0 0 0-17.578898 20.985661l-40.881159 150.851478 8.585043 2.316599 15.534841 3.134223c7.76742 1.498976 13.627053 2.45287 16.761275 2.72541s4.088116-1.498976 2.861681-4.088116a20.304309 20.304309 0 0 1 0-13.627053l2.45287-9.130125L436.068289 345.948907l-13.627053 52.736696-158.210087-42.380136-8.993855 33.522551 199.636328 54.508213 32.159845-119.100445L331.003709 282.719381l17.442628-64.728503q3.951845-13.627053 13.627053-14.444676a57.097353 57.097353 0 0 1 23.438532 3.134222l89.120927 24.119884q17.306357 4.360657 20.44058 13.627053a52.191613 52.191613 0 0 1-2.180329 28.480541 152.895536 152.895536 0 0 1 46.740792 1.362706zM529.686144 394.597487a293.390453 293.390453 0 0 1 26.027671 101.930357q20.713121 1.362705 40.881159 0.817623 7.086068 0 0.681353-7.086068a165.568695 165.568695 0 0 1-4.360657-16.761275L654.101138 490.259399l8.176232-30.388328-43.061488-11.582995q7.76742-13.627053 15.126029-28.753082a253.871999 253.871999 0 0 1-32.023574-12.264348 181.239806 181.239806 0 0 1-12.536889 33.113739l-7.903691-2.180328a371.882279 371.882279 0 0 0-21.258203-54.508213 233.976502 233.976502 0 0 1-30.93341 10.901643z m237.110724 57.369893a252.236753 252.236753 0 0 0-34.612715-16.079922A208.357642 208.357642 0 0 1 711.607303 473.498124l-7.903691-2.180328a146.763362 146.763362 0 0 1-7.494879-33.113739 36.656773 36.656773 0 0 0-11.037913-1.771517A191.868908 191.868908 0 0 1 749.49051 415.719419a313.422221 313.422221 0 0 1 70.179324 0 209.584077 209.584077 0 0 1-6.677256-44.969275 555.166144 555.166144 0 0 0-64.728503 7.494879l2.180329-7.903691L629.844984 337.227593l-2.997952 8.857585q-23.02972-24.119884-47.285874-45.650628a126.595323 126.595323 0 0 1-32.296116 18.12398 426.935574 426.935574 0 0 1 64.319691 58.596329 136.270531 136.270531 0 0 1 34.612715 66.091207l13.627053-1.226435a348.716289 348.716289 0 0 1 10.629101 84.48773 393.685564 393.685564 0 0 0 40.881159 2.997951c3.815575 0 3.815575-3.679304 0-9.675207a122.643478 122.643478 0 0 1-2.72541-14.989759l73.722357 19.895498 8.176232-30.115788-43.061488-11.582995a309.470376 309.470376 0 0 0 19.350416-31.069681z m-27.254107-89.666009q16.897546-1.771517 34.340174-5.314551 9.811478-1.362705 4.224387-8.585043a260.549255 260.549255 0 0 1-15.2623-49.193662l62.411903 16.897546 8.448773-31.478493L599.592926 221.261371l-8.448773 31.478493 136.270531 36.929314q5.04201 36.929314 11.855536 72.632193z m-63.638338-70.724406q-13.627053-10.629101-24.664966-21.258203a189.143497 189.143497 0 0 1-40.881159 33.38628q13.627053 13.627053 28.208 26.436483 18.941604-18.260251 37.065584-38.56456zM671.680037 405.362859a280.853565 280.853565 0 0 0-22.212097-32.841198l62.411904 16.897545q-20.031768 8.448773-40.199807 15.943653zM722.236404 302.887419a160.254145 160.254145 0 0 1-31.205952-15.126029 254.689623 254.689623 0 0 1-27.254106 47.967227A353.213217 353.213217 0 0 0 697.298897 350.854646 235.066666 235.066666 0 0 0 722.236404 302.887419zM913.015147 584.149795q3.543034 0 2.45287-4.769468a44.015382 44.015382 0 0 1 1.771517-22.075826l24.528696-90.756174a335.498047 335.498047 0 0 1 9.538937 136.270531 286.168115 286.168115 0 0 0 46.604521-1.362705q4.224386-1.907787 2.316599-4.224387a35.294068 35.294068 0 0 1-6.813526-17.715169q-1.362705-11.991807-1.771517-27.254106l90.211091 24.392425 8.857585-32.841198-27.254106-7.494879a307.426318 307.426318 0 0 0-0.545082-119.372985 125.505159 125.505159 0 0 1 34.885256-15.807382 149.897584 149.897584 0 0 1 38.70083-6.268444 124.006183 124.006183 0 0 1-20.71312-40.88116 215.716251 215.716251 0 0 0-66.500019 25.891401A258.914009 258.914009 0 0 0 1008.404519 323.60054a89.666009 89.666009 0 0 1-31.342222 17.033816l4.088116-18.532792-37.474396-10.084019-20.168039 74.53998a295.434511 295.434511 0 0 1-55.462106-40.881159 111.605565 111.605565 0 0 0-22.348367 32.977469 13.627053 13.627053 0 0 1 8.585044 15.671111l-33.931363 125.368888 7.358609 2.044058a191.596367 191.596367 0 0 0 33.658821 6.268445q3.951845 0 3.543034-3.951846a45.786898 45.786898 0 0 1 0-24.801236l24.392425-90.211092 24.392425 13.627053L872.133988 577.199998l7.903691 2.180329q4.905739 0.953894 15.534841 2.58914z m32.296116-130.683439l28.480541-105.473391A115.55741 115.55741 0 0 1 994.777466 366.662028a138.45086 138.45086 0 0 1 23.711073 36.247961 245.286956 245.286956 0 0 0-37.746938 49.466203l-2.72541-12.264348a85.305352 85.305352 0 0 1-32.023575 13.354512z m85.714164-10.901642a273.494956 273.494956 0 0 1-4.905739 83.261294l-36.247961-9.811478v-5.450821a286.168115 286.168115 0 0 1 41.835053-67.998995z"  horiz-adv-x="1363" />

    
    <glyph glyph-name="yewushuju" unicode="&#58928;" d="M27 283.7c-13.3 0-24-10.7-24-24v-360.5c0-13.3 10.7-24 24-24s24 10.7 24 24V259.7c0 13.2-10.7 24-24 24zM350.7 539.8c-13.3 0-24-10.7-24-24v-616.7c0-13.3 10.7-24 24-24s24 10.7 24 24V515.8c0 13.3-10.8 24-24 24zM674.3 283.7c-13.3 0-24-10.7-24-24v-360.5c0-13.3 10.7-24 24-24s24 10.7 24 24V259.7c0 13.2-10.7 24-24 24zM998 539.8c-13.3 0-24-10.7-24-24v-616.7c0-13.3 10.7-24 24-24s24 10.7 24 24V515.8c0 13.3-10.7 24-24 24zM1021.9 870.6v0.4c-0.1 1.1-0.3 2.2-0.5 3.3v0.2c-0.3 1.1-0.6 2.2-1 3.2v0.1c-0.4 1.1-0.9 2.1-1.4 3.1l-0.1 0.1c-0.3 0.5-0.6 0.9-0.9 1.4-0.3 0.4-0.6 0.9-0.9 1.3-0.1 0.1-0.1 0.2-0.2 0.3-0.3 0.4-0.6 0.7-0.9 1.1 0 0.1-0.1 0.1-0.1 0.2-0.3 0.4-0.7 0.7-1 1.1l-0.3 0.3c-0.3 0.3-0.7 0.6-1 0.9l-0.1 0.1-1.2 0.9c-0.1 0.1-0.2 0.1-0.3 0.2-0.9 0.6-1.8 1.2-2.8 1.7 0 0-0.1 0-0.1 0.1-1 0.5-2.1 1-3.3 1.4-1.1 0.4-2.2 0.6-3.3 0.8h-0.2c-0.5 0.1-1.1 0.2-1.6 0.2h-0.1c-0.5 0-0.9 0.1-1.4 0.1h-167c-13.3 0-24-10.7-24-24s10.7-24 24-24h107.5l-267-264.2L365.6 824c-8.8 6.9-21.2 6.9-29.9-0.1L15 567.5c-10.4-8.3-12-23.4-3.8-33.7 4.7-5.9 11.7-9 18.8-9 5.3 0 10.5 1.7 15 5.3L350.7 774.6 659.4 530c9.5-7.5 23.2-6.8 31.8 1.8L974 811.5v-102.6c0-13.3 10.7-24 24-24s24 10.7 24 24V869c0 0.6 0 1.1-0.1 1.6z"  horiz-adv-x="1024" />

    
    <glyph glyph-name="qingjialeibie" unicode="&#59251;" d="M576.1 82.3H81.3V686.2H174V640c0-9.9 8.1-18 18-18s18 8.1 18 18v46.3h476.1V640c0-9.9 8.1-18 18-18s18 8.1 18 18v46.3h92V320c0-9.9 8.1-18 18-18s18 8.1 18 18V692.5c0 16.4-13.3 29.7-29.7 29.7h-98.3V832.1c0 9.9-8.1 18-18 18s-18-8.1-18-18v-109.9H210V832.1c0 9.9-8.1 18-18 18s-18-8.1-18-18v-109.9H75c-16.4 0-29.7-13.3-29.7-29.7V76c0-16.4 13.3-29.7 29.7-29.7h501.1c9.9 0 18 8.1 18 18s-8 18-18 18zM191.7 511.9m-32 0a32 32 0 1 1 64 0 32 32 0 1 1-64 0ZM448.6 511.9m-32 0a32 32 0 1 1 64 0 32 32 0 1 1-64 0ZM703.8 511.9m-32 0a32 32 0 1 1 64 0 32 32 0 1 1-64 0ZM191.7 320.1m-32 0a32 32 0 1 1 64 0 32 32 0 1 1-64 0ZM448.6 320.1m-32 0a32 32 0 1 1 64 0 32 32 0 1 1-64 0ZM703.8 320.1m-32 0a32 32 0 1 1 64 0 32 32 0 1 1-64 0ZM800.1 274c-98.1 0-177.9-79.8-177.9-177.9 0-98.1 79.8-177.9 177.9-177.9S978-2 978 96.1c0 98.1-79.8 177.9-177.9 177.9z m0-319.8c-78.3 0-141.9 63.7-141.9 141.9 0 78.3 63.7 141.9 141.9 141.9S942 174.4 942 96.1c0-78.3-63.7-141.9-141.9-141.9zM896.2 114.1h-78.1v77.7c0 9.9-8.1 18-18 18s-18-8.1-18-18v-95.7c0-9.9 8.1-18 18-18h96.1c9.9 0 18 8.1 18 18s-8.1 18-18 18z"  horiz-adv-x="1024" />

    
    <glyph glyph-name="tuihuo1" unicode="&#58891;" d="M512 896A2341.44 2341.44 0 0 1 0 833.152V384a484.352 484.352 0 0 1 71.936-199.04 630.336 630.336 0 0 1 153.6-169.728A892.672 892.672 0 0 1 512-128a894.08 894.08 0 0 1 285.76 142.784A631.488 631.488 0 0 1 951.36 184 487.36 487.36 0 0 1 1024 384V833.152A2341.312 2341.312 0 0 1 512 896z m469.312-510.08A450.432 450.432 0 0 0 915.2 206.272a588.8 588.8 0 0 0-143.36-157.76A842.944 842.944 0 0 0 512-83.2a841.856 841.856 0 0 0-260.288 132.288 587.904 587.904 0 0 0-143.296 158.208 446.336 446.336 0 0 0-65.728 178.56V800A2366.592 2366.592 0 0 0 512 853.312a2366.08 2366.08 0 0 0 469.312-53.44V385.92zM485.696 320V460.8h180.992v-14.272h38.4V691.712H446.592V334.72a50.048 50.048 0 0 0-14.912-36.544l29.12-40.384a263.104 263.104 0 0 0 28.8 18.816q50.048 25.28 99.2 44.672-2.048 20.416-2.56 42.496Q526.848 336.832 485.696 320z m-124.928-25.6V523.968h-100.8v-39.808h61.184v-181.184q-20.352-19.904-65.792-65.6l21.056-44.8a795.328 795.328 0 0 0 61.696 72.064 133.44 133.44 0 0 1 122.368-62.912q142.912-3.2 292.544-2.176 8.768 24.768 14.4 42.496-154.752-4.288-300.8-2.176A118.72 118.72 0 0 0 360.768 294.4z m259.648 98.368l-77.12 48.832-21.056-29.568q115.2-76.352 199.488-140.352l25.6 37.632q-36.928 25.408-92.48 61.376 47.296 20.416 97.152 41.408l-26.24 37.12Q672 418.56 620.416 392.768z m46.272 201.088H485.696v61.312h180.992v-61.312z m-180.992-96.768V558.4h180.992v-61.312H485.696zM286.72 681.472Q313.6 644.416 355.072 576l36.48 26.88q-45.952 68.416-71.936 101.76z"  horiz-adv-x="1024" />

    
    <glyph glyph-name="tuihuodan2" unicode="&#59574;" d="M704.7 768.6v2.8c0 33-27 60-60 60h-264c-33 0-60-27-60-60 0-0.9 0-1.9 0.1-2.8h-0.1c-35.2 0-64-28.8-64-64v-64c0-35.2 28.8-64 64-64h384c35.2 0 64 28.8 64 64v64c0 35.2-28.8 64-64 64z m0-96c0-17.6-14.4-32-32-32h-319c-17.6 0-33 14.4-33 32s14.4 32 32 32h32.1s-0.2 20 3.2 37.4c3.1 14.4 15.9 25.2 31.3 25.2v0.2h186.2v-0.2c15.1-0.1 27.6-10.6 30.9-24.6h0.3c3.6-17.5 3.8-37.9 3.8-37.9h32.1c17.7-0.1 32.1-14.5 32.1-32.1zM832.7 701H736v-64h32.7c35.2 0 64-28.8 64-64v-510c0-35.2-28.8-64-64-64h-512c-35.2 0-64 28.8-64 64V573c0 35.2 28.8 64 64 64h63.2v64H192.7c-35.2 0-64-28.8-64-64v-638c0-35.2 28.8-64 64-64h640c35.2 0 64 28.8 64 64V637c0 35.2-28.8 64-64 64zM677.6 405.1H393.7l35.9 35.9c12.4 12.4 12.4 32.8 0 45.3-12.4 12.4-32.8 12.4-45.3 0l-90.5-90.5c-12.4-12.4-12.4-32.8 0-45.3l90.5-90.5c12.4-12.4 32.8-12.4 45.3 0 12.4 12.4 12.4 32.8 0 45.3l-35.9 35.9h229.9c35.2 0 54-18.8 54-54v-84c0-35.2-18.8-54-54-54H361.7c-17.7 0-32-14.3-32-32s14.3-32 32-32h315.9c35.2 0 64 28.8 64 64v192c0 35.1-28.8 63.9-64 63.9z"  horiz-adv-x="1024" />

    
    <glyph glyph-name="jiekuan-" unicode="&#58956;" d="M944 402c-9 0-18-9-18-18 0-227.25-186.75-414-414-414S98 156.75 98 384 284.75 798 512 798c11.25 0 22.5 0 33.75-2.25h2.25c9 0 18 6.75 18 15.75 0 4.5 0 9-4.5 13.5-2.25 4.5-6.75 6.75-11.25 6.75C536.75 834 523.25 834 512 834 264.5 834 62 631.5 62 384s202.5-450 450-450 450 202.5 450 450c0 9-9 18-18 18zM399.5 541.5c-4.5 4.5-11.25 9-20.25 9-4.5 0-9 0-13.5-2.25-6.75-2.25-9-6.75-11.25-13.5 0-4.5 0-9 4.5-13.5l101.25-123.75h-92.25c-13.5 0-24.75-9-24.75-20.25s11.25-20.25 24.75-20.25h119.25v-45h-119.25c-13.5 0-24.75-9-24.75-20.25s11.25-20.25 24.75-20.25h119.25v-81c0-11.25 11.25-20.25 24.75-20.25 13.5 0 24.75 9 24.75 20.25V271.5h119.25c13.5 0 24.75 9 24.75 20.25s-11.25 20.25-24.75 20.25H534.5v45h119.25c13.5 0 24.75 9 24.75 20.25s-11.25 20.25-24.75 20.25h-92.25l101.25 123.75c2.25 4.5 4.5 9 4.5 13.5-2.25 4.5-4.5 11.25-11.25 13.5-4.5 2.25-9 2.25-13.5 2.25-9 0-15.75-2.25-20.25-9l-112.5-137.25L399.5 541.5zM649.25 676.5l90-81c2.25-2.25 6.75-2.25 11.25-2.25s11.25 2.25 15.75 6.75c4.5 4.5 6.75 9 6.75 15.75V672H939.5c11.25 0 22.5 9 22.5 22.5s-9 22.5-22.5 22.5h-168.75V775.5c0 11.25-9 20.25-20.25 20.25-4.5 0-6.75 0-11.25-2.25l-90-81c-6.75-4.5-11.25-11.25-11.25-18s4.5-13.5 11.25-18z"  horiz-adv-x="1029" />

    
    <glyph glyph-name="fenxiaosousuo" unicode="&#58904;" d="M914.285714 109.714286a17.188571 17.188571 0 0 0-12.8 5.485714l-152.868571 152.502857a18.285714 18.285714 0 0 0 25.965714 25.965714l152.502857-152.868571a17.554286 17.554286 0 0 0 0-25.6 17.188571 17.188571 0 0 0-12.8-5.485714zM365.714286 475.428571H109.714286a18.285714 18.285714 0 0 0 0 36.571429h256a18.285714 18.285714 0 0 0 0-36.571429zM365.714286 256H109.714286a18.285714 18.285714 0 0 0 0 36.571429h256a18.285714 18.285714 0 0 0 0-36.571429zM658.285714 36.571429H109.714286a18.285714 18.285714 0 0 0 0 36.571428h548.571428a18.285714 18.285714 0 0 0 0-36.571428zM658.285714 694.857143H109.714286a18.285714 18.285714 0 0 0 0 36.571428h548.571428a18.285714 18.285714 0 0 0 0-36.571428zM658.285714 219.428571a164.571429 164.571429 0 1 0 164.571429 164.571429 164.937143 164.937143 0 0 0-164.571429-164.571429z m0 292.571429a128 128 0 1 1 128-128 128 128 0 0 1-128 128z"  horiz-adv-x="1024" />

    
    <glyph glyph-name="moban" unicode="&#58915;" d="M292.214634 703.687805V-103.02439h591.921951V703.687805H292.214634z m0 24.97561h591.921951c14.985366 0 24.97561-9.990244 24.97561-24.97561V-103.02439c0-14.985366-9.990244-24.97561-24.97561-24.97561H292.214634c-14.985366 0-24.97561 9.990244-24.97561 24.97561V703.687805c0 12.487805 12.487805 24.97561 24.97561 24.97561zM284.721951 26.84878h-124.878049c-12.487805 0-22.478049 9.990244-22.478048 22.478049V836.058537c0 12.487805 9.990244 22.478049 22.478048 22.478048h571.941464c12.487805 0 22.478049-9.990244 22.478049-22.478048v-124.878049h24.975609v124.878049c0 27.473171-22.478049 47.453659-47.453658 47.453658H159.843902C132.370732 883.512195 112.390244 861.034146 112.390244 836.058537v-784.234147c0-27.473171 22.478049-47.453659 47.453658-47.453658h124.878049v22.478048zM387.121951 548.839024h402.107317c7.492683 0 12.487805-4.995122 12.487805-12.487804s-4.995122-12.487805-12.487805-12.487805H387.121951c-7.492683 0-12.487805 4.995122-12.487805 12.487805s4.995122 12.487805 12.487805 12.487804zM387.121951 391.492683h402.107317c7.492683 0 12.487805-4.995122 12.487805-12.487805s-4.995122-12.487805-12.487805-12.487805H387.121951c-7.492683 0-12.487805 4.995122-12.487805 12.487805 0 4.995122 4.995122 12.487805 12.487805 12.487805zM387.121951 231.64878h402.107317c7.492683 0 12.487805-4.995122 12.487805-12.487804s-4.995122-12.487805-12.487805-12.487805H387.121951c-7.492683 0-12.487805 4.995122-12.487805 12.487805s4.995122 12.487805 12.487805 12.487804zM387.121951 71.804878h259.746342c7.492683 0 12.487805-4.995122 12.487805-12.487805s-4.995122-12.487805-12.487805-12.487805H387.121951c-7.492683 0-12.487805 4.995122-12.487805 12.487805s4.995122 12.487805 12.487805 12.487805z"  horiz-adv-x="1024" />

    
    </font>
</defs>
</svg>
